<svg xmlns="http://www.w3.org/2000/svg" version="1.1" xmlns:xlink="http://www.w3.org/1999/xlink" xmlns:svgjs="http://svgjs.com/svgjs" width="100%" height="100%"><svg width="100%" height="100%" viewBox="0 0 600 600" version="1.1" xmlns="http://www.w3.org/2000/svg" xmlns:xlink="http://www.w3.org/1999/xlink" xml:space="preserve" xmlns:serif="http://www.serif.com/" style="fill-rule:evenodd;clip-rule:evenodd;stroke-linejoin:round;stroke-miterlimit:2;"><g><path d="M189.138,513.277c15.954,-0 30.032,-0.704 42.233,-2.112c12.202,-1.408 22.408,-4.811 30.619,-10.206c8.211,-5.396 14.43,-13.138 18.653,-23.228c4.224,-10.091 6.335,-24.049 6.335,-41.881c0,-14.078 -0.704,-28.624 -2.111,-43.641c23.932,-0 46.22,-4.927 66.868,-14.782c20.649,-9.854 38.478,-22.992 53.496,-39.417c15.017,-16.425 26.863,-35.311 35.546,-56.663c8.682,-21.352 13.022,-43.757 13.022,-67.221c-0,-39.417 -8.331,-70.856 -24.988,-94.32c-16.658,-23.464 -38.246,-41.413 -64.758,-53.847c-26.511,-12.434 -55.958,-20.413 -88.337,-23.932c-32.379,-3.52 -64.053,-5.279 -95.024,-5.279c-17.362,-0 -31.207,3.403 -41.529,10.206c-10.323,6.803 -18.301,15.601 -23.932,26.396c-5.631,10.794 -9.387,23.112 -11.263,36.953c-1.875,13.842 -2.815,27.804 -2.815,41.881c-0,15.018 0.588,30.267 1.76,45.753c1.172,15.485 1.759,30.735 1.759,45.752c0,31.439 -1.407,62.646 -4.223,93.617c-2.816,30.971 -4.223,62.177 -4.223,93.616c-0,31.911 8.094,53.612 24.284,65.11c16.189,11.497 39.065,17.245 68.628,17.245Zm49.976,76.723c-11.73,0 -23.344,-0.704 -34.842,-2.112c-11.498,-1.407 -22.289,-4.223 -32.379,-8.446c-10.09,-4.224 -19.005,-10.09 -26.747,-17.597c-7.743,-7.507 -13.726,-17.597 -17.949,-30.267c-11.731,-3.756 -21.353,-9.035 -28.86,-15.838c-7.507,-6.803 -13.373,-14.545 -17.597,-23.228c-4.223,-8.682 -7.155,-18.301 -8.798,-28.859c-1.644,-10.558 -2.464,-21.469 -2.464,-32.731c0,-31.439 1.408,-62.645 4.223,-93.616c2.816,-30.971 4.224,-62.178 4.224,-93.617c-0,-15.485 -0.588,-30.854 -1.76,-46.104c-1.172,-15.25 -1.76,-30.619 -1.76,-46.104c0,-18.769 1.292,-36.718 3.872,-53.848c2.579,-17.129 7.742,-32.142 15.485,-45.048c7.743,-12.906 18.537,-23.228 32.379,-30.971c13.842,-7.743 32.026,-11.614 54.551,-11.614c22.992,0 47.628,0.94 73.908,2.816c26.279,1.875 51.851,5.983 76.723,12.317c24.872,6.335 47.98,15.954 69.332,28.86c21.353,12.905 38.83,30.151 52.44,51.735c28.155,18.301 48.1,41.177 59.83,68.629c11.73,27.451 17.597,57.602 17.597,90.449c-0,23.932 -4.223,47.276 -12.67,70.036c-8.447,22.76 -20.061,43.289 -34.842,61.59c-14.782,18.301 -32.379,33.67 -52.792,46.104c-20.412,12.435 -42.585,20.529 -66.517,24.284c0,25.34 -1.523,45.989 -4.575,61.942c-3.051,15.954 -9.034,28.507 -17.949,37.658c-8.915,9.15 -21.584,15.369 -38.01,18.653c-16.425,3.283 -37.773,4.927 -64.053,4.927Z" style="fill:#ee701e;fill-rule:nonzero;"></path></g></svg><style>@media (prefers-color-scheme: light) { :root { filter: none; } }
</style></svg>