<?xml version="1.0" standalone="no"?>
<!DOCTYPE svg PUBLIC "-//W3C//DTD SVG 20010904//EN"
 "http://www.w3.org/TR/2001/REC-SVG-20010904/DTD/svg10.dtd">
<svg version="1.0" xmlns="http://www.w3.org/2000/svg"
 width="700.000000pt" height="700.000000pt" viewBox="0 0 700.000000 700.000000"
 preserveAspectRatio="xMidYMid meet">
<metadata>
Created by potrace 1.14, written by Peter Selinger 2001-2017
</metadata>
<g transform="translate(0.000000,700.000000) scale(0.100000,-0.100000)"
fill="#000000" stroke="none">
<path d="M2037 6883 c-1 -1 -42 -4 -91 -8 -83 -6 -231 -32 -301 -53 -188 -57
-402 -216 -515 -381 -67 -100 -154 -287 -175 -379 -19 -80 -45 -216 -50 -257
-3 -27 -7 -59 -9 -70 -21 -108 -30 -754 -13 -965 4 -52 10 -140 14 -195 4 -55
8 -260 8 -455 0 -438 -12 -695 -50 -1110 -4 -41 -12 -149 -20 -270 -27 -393
-27 -984 0 -1120 3 -14 7 -38 9 -55 19 -141 83 -303 169 -430 93 -136 266
-268 412 -315 55 -17 58 -21 89 -100 89 -226 291 -410 552 -503 82 -29 216
-62 289 -71 28 -4 65 -8 84 -11 175 -21 606 -22 806 -1 17 2 59 6 95 10 55 6
173 25 245 40 49 10 160 51 215 80 251 130 372 347 416 742 3 32 8 73 10 89 4
46 17 323 17 392 0 49 4 64 16 67 15 4 39 9 96 20 77 15 255 67 310 91 17 7
40 16 53 20 24 7 243 116 277 137 121 78 214 143 280 196 385 308 680 755 821
1244 18 65 36 131 39 146 16 84 34 195 41 252 15 128 8 539 -11 640 -2 10 -7
40 -11 67 -3 26 -8 57 -11 68 -4 22 -20 98 -27 132 -24 113 -98 326 -157 453
-127 271 -351 529 -613 705 -38 26 -73 61 -99 100 -286 425 -772 730 -1416
889 -118 30 -155 38 -231 52 -8 2 -31 6 -50 10 -53 11 -114 21 -175 29 -11 2
-56 8 -100 14 -75 10 -129 16 -235 26 -39 4 -113 9 -305 20 -160 10 -693 24
-698 18z m633 -327 c30 -3 98 -8 150 -11 94 -6 143 -10 250 -21 30 -3 75 -7
99 -10 24 -2 81 -8 125 -14 139 -19 177 -26 316 -56 144 -32 359 -94 425 -124
11 -5 45 -19 75 -30 164 -63 355 -170 502 -281 85 -64 245 -219 308 -298 222
-276 329 -565 366 -989 7 -79 7 -359 0 -407 -3 -22 -8 -62 -11 -90 -3 -27 -7
-61 -10 -75 -3 -14 -7 -36 -10 -50 -54 -292 -200 -618 -389 -875 -267 -360
-669 -638 -1074 -741 -53 -14 -113 -27 -132 -30 -19 -3 -46 -7 -60 -10 -28 -4
-138 -14 -215 -19 -27 -2 -54 -4 -59 -4 -4 -1 -6 -11 -3 -23 19 -76 29 -570
14 -698 -7 -62 -9 -77 -23 -145 -35 -174 -151 -341 -291 -419 -157 -88 -341
-118 -748 -120 -181 -1 -378 9 -395 19 -3 2 -25 6 -49 10 -80 12 -215 56 -298
96 -182 90 -277 193 -341 372 -53 148 -66 252 -66 537 0 228 10 576 18 670 2
19 7 78 10 130 7 92 9 120 21 240 2 30 7 96 11 145 3 50 7 108 9 130 28 334
27 1148 -1 1400 -8 81 -12 662 -4 740 5 44 12 109 15 145 20 206 96 441 186
572 97 142 242 256 386 302 121 40 186 45 518 40 176 -2 345 -6 375 -8z"/>
</g>
</svg>
