<svg xmlns="http://www.w3.org/2000/svg" version="1.1" xmlns:xlink="http://www.w3.org/1999/xlink" xmlns:svgjs="http://svgjs.com/svgjs" width="100%" height="100%"><svg width="100%" height="100%" viewBox="0 0 131 165" version="1.1" xmlns="http://www.w3.org/2000/svg" xmlns:xlink="http://www.w3.org/1999/xlink" xml:space="preserve" xmlns:serif="http://www.serif.com/" style="fill-rule:evenodd;clip-rule:evenodd;stroke-linejoin:round;stroke-miterlimit:2;"><path d="M34,143c4.533,0 8.533,-0.2 12,-0.6c3.467,-0.4 6.367,-1.367 8.7,-2.9c2.333,-1.533 4.1,-3.733 5.3,-6.6c1.2,-2.867 1.8,-6.833 1.8,-11.9c0,-4 -0.2,-8.133 -0.6,-12.4c6.8,-0 13.133,-1.4 19,-4.2c5.867,-2.8 10.933,-6.533 15.2,-11.2c4.267,-4.667 7.633,-10.033 10.1,-16.1c2.467,-6.067 3.7,-12.433 3.7,-19.1c0,-11.2 -2.367,-20.133 -7.1,-26.8c-4.733,-6.667 -10.867,-11.767 -18.4,-15.3c-7.533,-3.533 -15.9,-5.8 -25.1,-6.8c-9.2,-1 -18.2,-1.5 -27,-1.5c-4.933,-0 -8.867,0.967 -11.8,2.9c-2.933,1.933 -5.2,4.433 -6.8,7.5c-1.6,3.067 -2.667,6.567 -3.2,10.5c-0.533,3.933 -0.8,7.9 -0.8,11.9c0,4.267 0.167,8.6 0.5,13c0.333,4.4 0.5,8.733 0.5,13c0,8.933 -0.4,17.8 -1.2,26.6c-0.8,8.8 -1.2,17.667 -1.2,26.6c0,9.067 2.3,15.233 6.9,18.5c4.6,3.267 11.1,4.9 19.5,4.9Zm14.2,21.8c-3.333,-0 -6.633,-0.2 -9.9,-0.6c-3.267,-0.4 -6.333,-1.2 -9.2,-2.4c-2.867,-1.2 -5.4,-2.867 -7.6,-5c-2.2,-2.133 -3.9,-5 -5.1,-8.6c-3.333,-1.067 -6.067,-2.567 -8.2,-4.5c-2.133,-1.933 -3.8,-4.133 -5,-6.6c-1.2,-2.467 -2.033,-5.2 -2.5,-8.2c-0.467,-3 -0.7,-6.1 -0.7,-9.3c0,-8.933 0.4,-17.8 1.2,-26.6c0.8,-8.8 1.2,-17.667 1.2,-26.6c0,-4.4 -0.167,-8.767 -0.5,-13.1c-0.333,-4.333 -0.5,-8.7 -0.5,-13.1c0,-5.333 0.367,-10.433 1.1,-15.3c0.733,-4.867 2.2,-9.133 4.4,-12.8c2.2,-3.667 5.267,-6.6 9.2,-8.8c3.933,-2.2 9.1,-3.3 15.5,-3.3c6.533,-0 13.533,0.267 21,0.8c7.467,0.533 14.733,1.7 21.8,3.5c7.067,1.8 13.633,4.533 19.7,8.2c6.067,3.667 11.033,8.567 14.9,14.7c8,5.2 13.667,11.7 17,19.5c3.333,7.8 5,16.367 5,25.7c0,6.8 -1.2,13.433 -3.6,19.9c-2.4,6.467 -5.7,12.3 -9.9,17.5c-4.2,5.2 -9.2,9.567 -15,13.1c-5.8,3.533 -12.1,5.833 -18.9,6.9c0,7.2 -0.433,13.067 -1.3,17.6c-0.867,4.533 -2.567,8.1 -5.1,10.7c-2.533,2.6 -6.133,4.367 -10.8,5.3c-4.667,0.933 -10.733,1.4 -18.2,1.4Z" style="fill:#ee701e;fill-rule:nonzero;"></path></svg><style>@media (prefers-color-scheme: light) { :root { filter: none; } }
</style></svg>