<?xml version="1.0" standalone="no"?>
<!DOCTYPE svg PUBLIC "-//W3C//DTD SVG 20010904//EN"
 "http://www.w3.org/TR/2001/REC-SVG-20010904/DTD/svg10.dtd">
<svg version="1.0" xmlns="http://www.w3.org/2000/svg"
 width="700.000000pt" height="700.000000pt" viewBox="0 0 700.000000 700.000000"
 preserveAspectRatio="xMidYMid meet">
<metadata>
Created by potrace 1.14, written by Peter Selinger 2001-2017
</metadata>
<g transform="translate(0.000000,700.000000) scale(0.100000,-0.100000)"
fill="#000000" stroke="none">
<path d="M1889 6996 c-2 -2 -32 -7 -67 -10 -427 -42 -752 -287 -911 -688 -26
-65 -75 -227 -86 -286 -5 -30 -15 -96 -21 -147 -3 -27 -8 -58 -9 -67 -13 -66
-20 -259 -20 -538 0 -302 3 -374 23 -645 15 -204 7 -971 -13 -1230 -2 -27 -6
-90 -10 -140 -3 -49 -8 -108 -10 -130 -5 -47 -12 -129 -20 -240 -3 -44 -8
-102 -10 -130 -14 -167 -19 -372 -20 -685 0 -388 2 -416 41 -634 11 -57 55
-178 93 -254 104 -206 284 -367 501 -445 48 -17 62 -27 67 -47 11 -47 93 -202
137 -258 140 -182 371 -313 652 -371 176 -36 296 -45 589 -45 210 0 469 10
484 18 3 2 40 7 80 10 41 4 98 12 125 17 28 6 62 12 76 15 98 18 239 74 325
129 43 27 137 114 170 157 87 111 159 319 180 517 4 31 8 67 10 81 12 86 24
300 25 451 l0 87 58 11 c106 19 117 22 190 42 286 79 577 230 825 426 94 75
320 301 382 383 27 36 52 67 55 70 15 13 132 195 179 277 129 229 247 540 285
758 3 17 8 41 11 55 3 14 7 43 10 65 3 22 8 67 12 100 16 120 8 538 -12 645
-1 8 -6 40 -10 70 -4 30 -13 82 -21 115 -7 33 -16 74 -19 90 -3 17 -7 35 -9
40 -1 6 -8 30 -15 55 -121 444 -335 774 -671 1035 -47 36 -89 69 -95 73 -5 4
-24 16 -41 26 -16 10 -43 39 -60 65 -94 149 -307 372 -461 483 -201 145 -459
275 -726 367 -103 35 -269 84 -325 96 -9 2 -60 13 -111 24 -52 12 -115 24
-140 27 -26 3 -49 8 -52 10 -5 3 -179 30 -254 40 -16 2 -46 6 -65 8 -19 3 -71
8 -115 12 -44 3 -96 7 -115 9 -36 3 -217 15 -330 21 -105 6 -737 14 -741 10z
m661 -330 c74 -4 158 -9 185 -11 28 -3 86 -7 130 -10 44 -3 103 -7 130 -10
126 -12 162 -16 195 -20 19 -3 57 -7 84 -10 127 -13 386 -65 521 -105 39 -11
78 -22 87 -24 39 -10 207 -71 255 -92 28 -13 54 -24 57 -24 15 0 213 -101 289
-148 301 -184 557 -457 692 -737 47 -97 74 -168 106 -283 23 -83 24 -86 43
-202 8 -47 18 -101 21 -120 14 -73 13 -504 0 -600 -16 -116 -26 -173 -31 -181
-2 -3 -6 -21 -9 -40 -11 -63 -62 -223 -105 -329 -230 -561 -656 -992 -1195
-1205 -65 -26 -209 -70 -262 -81 -13 -2 -35 -6 -50 -9 -77 -16 -159 -25 -258
-31 -100 -6 -132 -15 -119 -35 26 -42 25 -788 -2 -830 -2 -4 -6 -24 -10 -45
-16 -101 -93 -249 -171 -328 -110 -112 -265 -179 -463 -201 -30 -4 -66 -9 -80
-12 -47 -10 -635 -12 -690 -3 -30 5 -73 12 -95 14 -52 7 -227 53 -275 74 -14
5 -43 18 -65 27 -59 25 -164 97 -209 141 -116 118 -185 284 -213 518 -9 72 -9
548 1 756 9 214 17 327 40 595 35 393 48 686 48 1065 0 258 -3 347 -17 560
-27 403 -27 815 0 1010 3 19 7 55 10 80 3 25 7 56 10 70 3 14 7 34 9 45 43
211 127 390 248 523 124 136 310 230 493 248 33 3 61 7 63 9 5 4 470 -3 602
-9z"/>
</g>
</svg>
