<?xml version="1.0" encoding="UTF-8"?>
<svg xmlns="http://www.w3.org/2000/svg" style="display: none;">
    <!-- LOGO -->
    <symbol id="logo" viewBox="0 0 51 64">
        <path d="M13.204 55.534c1.76 0 3.314-.078 4.66-.233 1.346-.155 2.473-.531 3.379-1.126.906-.596 1.592-1.45 2.058-2.563.466-1.114.699-2.654.699-4.622 0-1.553-.078-3.158-.233-4.815 2.641 0 5.1-.544 7.379-1.631 2.278-1.088 4.246-2.538 5.903-4.35 1.657-1.812 2.964-3.896 3.922-6.252a19.508 19.508 0 0 0 1.437-7.418c0-4.349-.919-7.818-2.758-10.407-1.838-2.589-4.22-4.57-7.145-5.942-2.926-1.372-6.175-2.253-9.748-2.641a97.11 97.11 0 0 0-10.485-.583c-1.916 0-3.444.376-4.583 1.127a7.7 7.7 0 0 0-2.64 2.912c-.622 1.191-1.036 2.55-1.243 4.078a34.369 34.369 0 0 0-.311 4.621c0 1.657.065 3.34.194 5.049.13 1.709.194 3.391.194 5.048 0 3.47-.155 6.913-.466 10.331-.31 3.417-.466 6.86-.466 10.33 0 3.521.894 5.915 2.68 7.184 1.786 1.269 4.311 1.903 7.573 1.903ZM18.718 64a31.66 31.66 0 0 1-3.844-.233 13.417 13.417 0 0 1-3.573-.932 9.419 9.419 0 0 1-2.951-1.942c-.855-.828-1.515-1.942-1.981-3.34-1.295-.414-2.356-.996-3.185-1.747a8.408 8.408 0 0 1-1.941-2.563c-.466-.958-.79-2.02-.971-3.185A23.497 23.497 0 0 1 0 46.447c0-3.47.155-6.913.466-10.33.311-3.418.466-6.861.466-10.331 0-1.708-.065-3.404-.194-5.087a66.037 66.037 0 0 1-.194-5.087c0-2.072.142-4.052.427-5.942.285-1.89.854-3.547 1.709-4.971.854-1.424 2.045-2.563 3.572-3.417C7.78.427 9.786 0 12.272 0c2.537 0 5.256.104 8.155.311 2.9.207 5.722.66 8.466 1.359a28.11 28.11 0 0 1 7.651 3.184c2.356 1.424 4.284 3.327 5.786 5.709 3.107 2.02 5.308 4.544 6.602 7.573 1.295 3.029 1.942 6.356 1.942 9.981 0 2.64-.466 5.216-1.398 7.728a24.063 24.063 0 0 1-3.845 6.796 22.422 22.422 0 0 1-5.825 5.087 19.897 19.897 0 0 1-7.34 2.68c0 2.796-.168 5.074-.505 6.835-.336 1.76-.997 3.145-1.98 4.155-.984 1.01-2.382 1.696-4.195 2.058-1.812.363-4.168.544-7.068.544Z" />
    </symbol>
    <symbol id="logo-full" viewBox="0 0 400 28">
        <path d="M5.559 23.708c.741 0 1.395-.032 1.962-.098.567-.065 1.041-.223 1.423-.474.381-.251.67-.61.866-1.079.197-.469.295-1.117.295-1.946 0-.654-.033-1.33-.098-2.027a7.116 7.116 0 0 0 3.106-.687 7.996 7.996 0 0 0 2.485-1.831 8.736 8.736 0 0 0 1.652-2.633 8.22 8.22 0 0 0 .605-3.123c0-1.831-.387-3.292-1.161-4.382a7.554 7.554 0 0 0-3.009-2.501c-1.231-.578-2.599-.949-4.104-1.112a40.702 40.702 0 0 0-4.414-.245c-.807 0-1.45.158-1.93.474-.479.316-.85.725-1.111 1.226a5.208 5.208 0 0 0-.524 1.717 14.5 14.5 0 0 0-.13 1.946c0 .697.027 1.406.081 2.125.055.72.082 1.428.082 2.126 0 1.46-.065 2.91-.196 4.349a47.952 47.952 0 0 0-.196 4.349c0 1.483.376 2.491 1.128 3.025.752.534 1.815.801 3.188.801Zm2.322 3.565a13.39 13.39 0 0 1-1.619-.098 5.69 5.69 0 0 1-1.504-.393 3.981 3.981 0 0 1-1.243-.817c-.359-.349-.637-.818-.834-1.406-.545-.175-.991-.42-1.34-.736a3.535 3.535 0 0 1-.818-1.079 4.74 4.74 0 0 1-.409-1.341A9.932 9.932 0 0 1 0 19.882c0-1.46.065-2.91.196-4.349s.196-2.889.196-4.349c0-.72-.027-1.434-.081-2.142A27.686 27.686 0 0 1 .229 6.9c0-.872.06-1.706.18-2.502.12-.795.359-1.493.719-2.093A3.98 3.98 0 0 1 2.632.867c.644-.36 1.488-.54 2.535-.54C6.235.327 7.38.371 8.6.458a20.28 20.28 0 0 1 3.565.572 11.82 11.82 0 0 1 3.221 1.341 7.332 7.332 0 0 1 2.436 2.403c1.308.851 2.235 1.913 2.78 3.189.545 1.275.817 2.676.817 4.202a9.293 9.293 0 0 1-.588 3.254 10.133 10.133 0 0 1-1.619 2.861 9.442 9.442 0 0 1-2.453 2.142 8.359 8.359 0 0 1-3.09 1.128c0 1.177-.071 2.137-.212 2.878-.142.741-.42 1.324-.834 1.749-.415.425-1.003.714-1.766.867-.763.152-1.755.229-2.976.229ZM30.477 1.57c-1.111 0-2.103.038-2.975.114-.872.076-1.614.289-2.224.638-.61.349-1.074.894-1.39 1.635-.316.741-.474 1.766-.474 3.074 0 1.722.016 3.439.049 5.15a267.203 267.203 0 0 1 .033 8.077c-.011.796.114 1.439.376 1.93.261.49.736.839 1.422 1.046.687.207 1.717.311 3.091.311.392 0 .784-.017 1.177-.049a4.351 4.351 0 0 0 1.095-.229c.338-.12.633-.311.883-.572.251-.262.42-.622.507-1.08.109.415.289.753.54 1.014.25.262.55.469.899.621.349.153.714.262 1.095.328a6.72 6.72 0 0 0 1.129.098c.61 0 1.21-.028 1.798-.082.589-.055 1.101-.185 1.537-.393.436-.207.79-.534 1.063-.981.272-.447.409-1.062.409-1.847 0-.981-.207-1.913-.622-2.796a15.707 15.707 0 0 0-1.438-2.469 6.983 6.983 0 0 0 1.569-2.633 9.7 9.7 0 0 0 .491-3.057c0-1.592-.262-2.9-.785-3.924-.523-1.025-1.243-1.826-2.158-2.404-.916-.577-1.984-.975-3.205-1.193a22.132 22.132 0 0 0-3.892-.327Zm0-1.243c.894 0 1.826.044 2.796.131.971.087 1.908.272 2.813.556a9.903 9.903 0 0 1 2.518 1.193 6.17 6.17 0 0 1 1.913 2.044c1.33.829 2.256 1.902 2.779 3.221.523 1.319.785 2.742.785 4.268a12.03 12.03 0 0 1-.392 3.041 8.005 8.005 0 0 1-1.308 2.747c.479.763.883 1.586 1.21 2.469a7.8 7.8 0 0 1 .49 2.73c0 1.047-.153 1.87-.458 2.469-.305.6-.725 1.052-1.259 1.357-.534.306-1.171.496-1.913.573-.741.076-1.537.114-2.387.114-.632 0-1.27-.065-1.913-.196a3.863 3.863 0 0 1-1.717-.818 3.124 3.124 0 0 1-1.798.785c-.676.066-1.33.098-1.962.098-.567 0-1.161-.016-1.783-.049a7.697 7.697 0 0 1-1.765-.294 3.889 3.889 0 0 1-1.472-.801c-.425-.371-.736-.883-.932-1.537-.981-.305-1.64-.812-1.978-1.521-.338-.708-.507-1.542-.507-2.502 0-2.245-.011-4.474-.033-6.687a672.706 672.706 0 0 1-.033-6.687c0-1.592.18-2.834.54-3.728.36-.894.888-1.559 1.586-1.995.698-.436 1.564-.708 2.6-.817a34.584 34.584 0 0 1 3.58-.164ZM58.077 23.676c1.112 0 2.006-.36 2.682-1.08.675-.719 1.013-1.635 1.013-2.746 0-.458-.065-.9-.196-1.325a3.784 3.784 0 0 0-.588-1.161 4.08 4.08 0 0 0-.932-.899 3.143 3.143 0 0 0-1.227-.507c.436-.349.736-.796.9-1.341.163-.545.245-1.09.245-1.635a5.29 5.29 0 0 0-.229-1.52 3.09 3.09 0 0 0-.785-1.325 2.96 2.96 0 0 0 1.259-.457c.36-.24.654-.54.883-.9a4.35 4.35 0 0 0 .523-1.193c.12-.436.18-.883.18-1.341 0-.938-.147-1.701-.441-2.289-.295-.589-.693-1.047-1.194-1.374-.501-.327-1.101-.545-1.799-.654a14.626 14.626 0 0 0-2.256-.163 38.54 38.54 0 0 1-1.586-.033 38.54 38.54 0 0 0-1.586-.033c-.523 0-1.101.022-1.733.066a9.1 9.1 0 0 0-1.831.311 4.742 4.742 0 0 0-1.586.768c-.469.349-.791.828-.965 1.439-.065.24-.12.697-.164 1.373a61.456 61.456 0 0 0-.098 2.387c-.021.916-.032 1.897-.032 2.944v7.455c0 1.025.049 1.859.147 2.502.098.643.316 1.15.654 1.521.338.37.823.632 1.455.784.632.153 1.483.24 2.551.262 1.133.044 2.256.082 3.368.115 1.112.032 2.235.049 3.368.049Zm2.322 3.564c-1.134 0-2.262-.022-3.385-.065a163.905 163.905 0 0 0-3.384-.098c-.567 0-1.15-.022-1.75-.066a6.84 6.84 0 0 1-1.716-.343 4.258 4.258 0 0 1-1.439-.818c-.415-.359-.698-.866-.851-1.52-.697-.197-1.226-.507-1.586-.932a3.658 3.658 0 0 1-.752-1.456 7.495 7.495 0 0 1-.229-1.749c-.011-.621-.016-1.226-.016-1.815v-5.265a242.207 242.207 0 0 1 .065-5.51c.022-.861.055-1.613.099-2.256.043-.643.098-1.096.163-1.357.218-.785.594-1.412 1.128-1.881a5.743 5.743 0 0 1 1.832-1.079 8.395 8.395 0 0 1 2.19-.474 26.44 26.44 0 0 1 2.208-.098c.523 0 1.046.011 1.569.033.524.021 1.047.032 1.57.032.611 0 1.243.027 1.897.082a7.444 7.444 0 0 1 1.864.392 5.274 5.274 0 0 1 1.602.9c.48.392.85.915 1.112 1.569.545.24.992.534 1.341.883.348.349.632.747.85 1.194.218.447.371.926.458 1.439.087.512.131 1.041.131 1.586 0 .894-.164 1.76-.491 2.599-.327.84-.894 1.488-1.7 1.946.152.349.25.709.294 1.079.043.371.065.742.065 1.112 0 .436-.038.861-.114 1.275a4.795 4.795 0 0 1-.376 1.178 4.443 4.443 0 0 1 1.733 1.88c.392.796.589 1.641.589 2.534 0 .72-.12 1.39-.36 2.011a4.852 4.852 0 0 1-1.014 1.619 4.496 4.496 0 0 1-1.57 1.063c-.61.251-1.286.376-2.027.376ZM84.009 16.318c0-.698-.098-1.335-.294-1.913a6.84 6.84 0 0 0-.785-1.603 7.715 7.715 0 0 0-1.177-1.373 18.28 18.28 0 0 0-1.472-1.226 5.274 5.274 0 0 0 1.292-.229 4.236 4.236 0 0 0 1.161-.556c.349-.24.627-.54.834-.899.207-.36.31-.791.31-1.292 0-.981-.239-1.842-.719-2.583a6.475 6.475 0 0 0-1.831-1.864 8.689 8.689 0 0 0-2.469-1.145 9.444 9.444 0 0 0-2.633-.392c-1.09 0-2.125.158-3.106.474a7.948 7.948 0 0 0-2.584 1.373 6.687 6.687 0 0 0-1.782 2.24c-.447.894-.67 1.919-.67 3.074 0 1.134.294 2.175.883 3.123a8.503 8.503 0 0 0 2.223 2.404 5.727 5.727 0 0 0-1.569.278 4.332 4.332 0 0 0-1.341.703 3.296 3.296 0 0 0-.932 1.144c-.229.458-.343.981-.343 1.57 0 1.068.25 1.995.752 2.779a6.369 6.369 0 0 0 1.945 1.946 9.025 9.025 0 0 0 2.649 1.145c.97.25 1.913.376 2.829.376 1.155 0 2.262-.158 3.319-.474a8.553 8.553 0 0 0 2.812-1.423 7.083 7.083 0 0 0 1.962-2.354c.491-.938.736-2.039.736-3.303Zm3.597 2.322c0 1.438-.272 2.708-.817 3.809a7.996 7.996 0 0 1-2.224 2.764 9.693 9.693 0 0 1-3.237 1.667 13.09 13.09 0 0 1-3.826.556 12.283 12.283 0 0 1-4.775-.981 9.132 9.132 0 0 1-2.109-1.259 6.624 6.624 0 0 1-1.586-1.815c-1.025-.676-1.826-1.493-2.403-2.452-.578-.96-.867-2.06-.867-3.303 0-1.047.24-1.946.719-2.698.48-.752 1.199-1.324 2.159-1.717-1.199-1.395-1.799-2.997-1.799-4.807 0-1.33.251-2.518.752-3.564a7.79 7.79 0 0 1 2.044-2.649A8.971 8.971 0 0 1 72.629.556 11.495 11.495 0 0 1 76.226 0c.742 0 1.499.087 2.273.262.774.174 1.515.43 2.224.768a9.674 9.674 0 0 1 1.978 1.259 6.655 6.655 0 0 1 1.504 1.733 7.582 7.582 0 0 1 2.355 2.355c.588.937.883 2.005.883 3.204 0 .763-.196 1.456-.589 2.077a4.303 4.303 0 0 1-1.602 1.488c.763.763 1.346 1.591 1.749 2.485.404.894.605 1.897.605 3.009ZM101.668 23.676c1.112 0 2.005-.36 2.681-1.08.676-.719 1.014-1.635 1.014-2.746 0-.458-.065-.9-.196-1.325a3.764 3.764 0 0 0-.589-1.161 4.04 4.04 0 0 0-.932-.899 3.139 3.139 0 0 0-1.226-.507 2.65 2.65 0 0 0 .899-1.341c.164-.545.245-1.09.245-1.635 0-.501-.076-1.008-.228-1.52a3.1 3.1 0 0 0-.785-1.325 2.965 2.965 0 0 0 1.259-.457c.359-.24.654-.54.883-.9a4.35 4.35 0 0 0 .523-1.193c.12-.436.18-.883.18-1.341 0-.938-.147-1.701-.442-2.289-.294-.589-.692-1.047-1.193-1.374-.502-.327-1.101-.545-1.799-.654a14.644 14.644 0 0 0-2.256-.163c-.524 0-1.052-.011-1.586-.033a38.54 38.54 0 0 0-1.586-.033c-.524 0-1.101.022-1.733.066a9.11 9.11 0 0 0-1.832.311 4.761 4.761 0 0 0-1.586.768c-.468.349-.79.828-.964 1.439-.066.24-.12.697-.164 1.373a59.525 59.525 0 0 0-.098 2.387c-.022.916-.033 1.897-.033 2.944v7.455c0 1.025.049 1.859.147 2.502.099.643.317 1.15.654 1.521.338.37.823.632 1.456.784.632.153 1.482.24 2.55.262 1.134.044 2.257.082 3.369.115 1.111.032 2.234.049 3.368.049Zm2.322 3.564c-1.134 0-2.262-.022-3.385-.065a164.003 164.003 0 0 0-3.385-.098c-.566 0-1.15-.022-1.749-.066a6.839 6.839 0 0 1-1.717-.343 4.268 4.268 0 0 1-1.439-.818c-.414-.359-.697-.866-.85-1.52-.698-.197-1.226-.507-1.586-.932a3.645 3.645 0 0 1-.752-1.456 7.443 7.443 0 0 1-.229-1.749c-.011-.621-.016-1.226-.016-1.815v-5.265a242.207 242.207 0 0 1 .065-5.51c.022-.861.055-1.613.098-2.256.044-.643.098-1.096.164-1.357.218-.785.594-1.412 1.128-1.881a5.739 5.739 0 0 1 1.831-1.079 8.403 8.403 0 0 1 2.191-.474c.774-.065 1.51-.098 2.207-.098.524 0 1.047.011 1.57.033.523.021 1.046.032 1.57.032.61 0 1.242.027 1.896.082a7.435 7.435 0 0 1 1.864.392 5.267 5.267 0 0 1 1.603.9c.479.392.85.915 1.112 1.569.545.24.991.534 1.34.883.349.349.632.747.85 1.194.218.447.371.926.458 1.439.088.512.131 1.041.131 1.586 0 .894-.163 1.76-.49 2.599-.327.84-.894 1.488-1.701 1.946.153.349.251.709.294 1.079.044.371.066.742.066 1.112 0 .436-.038.861-.115 1.275a4.753 4.753 0 0 1-.376 1.178 4.436 4.436 0 0 1 1.733 1.88 5.65 5.65 0 0 1 .589 2.534c0 .72-.12 1.39-.36 2.011a4.833 4.833 0 0 1-1.013 1.619c-.436.458-.96.812-1.57 1.063-.61.251-1.286.376-2.027.376ZM118.443 21.321c.284.589.671 1.047 1.161 1.374a5.628 5.628 0 0 0 1.603.735 8.138 8.138 0 0 0 1.798.295c.622.032 1.216.049 1.782.049 1.526 0 2.584-.376 3.172-1.128.589-.753.883-1.848.883-3.287l-.032-13.146c0-.654-.044-1.259-.131-1.815a3.957 3.957 0 0 0-.507-1.455 2.624 2.624 0 0 0-1.079-.981c-.469-.24-1.074-.36-1.815-.36-.458 0-.894.017-1.308.049a3.31 3.31 0 0 0-1.096.262 1.824 1.824 0 0 0-.784.687c-.208.316-.322.757-.344 1.324a3.283 3.283 0 0 0-.801-.981 4.68 4.68 0 0 0-1.144-.703 6.596 6.596 0 0 0-2.568-.54c-1.177 0-2.163.05-2.959.148-.796.098-1.428.332-1.897.703-.468.37-.806.926-1.013 1.667-.207.742-.311 1.745-.311 3.009 0 2.18.049 4.344.147 6.491.098 2.147.147 4.311.147 6.491 0 .872.126 1.543.376 2.011.251.469.6.818 1.047 1.047.447.229.975.365 1.586.409.61.043 1.264.065 1.962.065.785 0 1.335-.218 1.651-.654.316-.436.474-1.025.474-1.766ZM124.657.36c.545 0 1.068.022 1.569.065.502.044.96.158 1.374.343.414.186.785.447 1.112.785.327.338.599.801.817 1.39.589.218 1.068.529 1.439.932s.659.856.867 1.357c.207.502.348 1.041.425 1.619.076.578.114 1.139.114 1.684 0 2.202.006 4.393.016 6.573.011 2.18.017 4.371.017 6.573 0 1.875-.393 3.286-1.177 4.235-.785.948-2.159 1.422-4.121 1.422-.479 0-.97-.011-1.471-.033-.502-.021-.998-.07-1.488-.147a9.133 9.133 0 0 1-1.439-.343 5.185 5.185 0 0 1-1.324-.654 2.49 2.49 0 0 1-1.227.899c-.49.164-.997.245-1.52.245-.589 0-1.194-.01-1.815-.032a7.427 7.427 0 0 1-1.75-.262 3.819 3.819 0 0 1-1.455-.768c-.425-.36-.736-.889-.932-1.586-.545-.153-.986-.376-1.324-.671a3.11 3.11 0 0 1-.785-1.03 4.437 4.437 0 0 1-.376-1.292 10.414 10.414 0 0 1-.098-1.455c0-2.18-.049-4.344-.148-6.491a142.351 142.351 0 0 1-.147-6.491c0-1.548.115-2.769.344-3.663.229-.893.632-1.569 1.21-2.027.577-.458 1.34-.752 2.289-.883.948-.131 2.142-.196 3.58-.196a7.6 7.6 0 0 1 2.061.294c.697.196 1.33.48 1.896.85a2.79 2.79 0 0 1 1.57-1.013 8.034 8.034 0 0 1 1.897-.229ZM151.57 15.795c0 .915.043 1.809.13 2.681.088.872.131 1.766.131 2.682 0 1.068-.103 1.994-.31 2.779-.208.785-.545 1.439-1.014 1.962-.469.523-1.085.916-1.848 1.178-.763.261-1.7.392-2.812.392-.545 0-1.09-.038-1.635-.115a6.378 6.378 0 0 1-1.537-.408 3.955 3.955 0 0 1-1.275-.834c-.371-.36-.654-.834-.851-1.423-.981-.37-1.662-.943-2.043-1.716-.382-.774-.573-1.663-.573-2.666v-6.442c-.937-.436-1.569-1.166-1.896-2.191-.633-.196-1.129-.49-1.488-.883a3.775 3.775 0 0 1-.801-1.357 7.125 7.125 0 0 1-.344-1.635 18.45 18.45 0 0 1-.082-1.717c0-.915.093-1.727.278-2.436.186-.708.485-1.297.9-1.766.414-.468.953-.823 1.618-1.062.665-.24 1.477-.36 2.437-.36a761.15 761.15 0 0 1 10.039.065c.545 0 1.084.033 1.619.098.534.066 1.03.191 1.487.376.458.186.867.458 1.227.818.359.36.637.834.834 1.422.828.284 1.471.769 1.929 1.456.458.686.687 1.466.687 2.338 0 1.003-.006 1.951-.017 2.845-.011.894-.152 1.678-.425 2.354-.272.676-.741 1.21-1.406 1.603-.665.392-1.64.588-2.927.588 0 .24-.005.469-.016.687-.011.218-.016.447-.016.687Zm-3.565-2.355a51.86 51.86 0 0 1 .066-2.616c1.046.044 1.88.006 2.501-.114.622-.12 1.096-.36 1.423-.72.327-.36.539-.861.637-1.504.099-.643.148-1.466.148-2.469V4.709c-.022-.61-.158-1.112-.409-1.504a2.543 2.543 0 0 0-.965-.9 4.218 4.218 0 0 0-1.324-.425 9.713 9.713 0 0 0-1.488-.114 771.286 771.286 0 0 0-10.039-.066c-1.483 0-2.518.382-3.107 1.145-.589.763-.883 1.842-.883 3.237 0 .763.055 1.434.164 2.012.109.577.31 1.062.605 1.455.294.392.697.686 1.209.883.513.196 1.183.294 2.012.294.109 0 .223-.005.343-.016.12-.011.234-.017.343-.017a101.923 101.923 0 0 0-.081 4.807c.01 1.592.016 3.194.016 4.807 0 .72.109 1.308.327 1.766.218.458.518.823.899 1.096.382.272.834.463 1.357.572a8.517 8.517 0 0 0 1.733.164c1.788 0 3.031-.426 3.728-1.276.698-.85 1.047-2.125 1.047-3.826a27 27 0 0 0-.131-2.681 27.005 27.005 0 0 1-.131-2.682ZM170.046 23.676c1.112 0 2.005-.36 2.681-1.08.676-.719 1.014-1.635 1.014-2.746 0-.458-.065-.9-.196-1.325a3.764 3.764 0 0 0-.589-1.161 4.04 4.04 0 0 0-.932-.899 3.139 3.139 0 0 0-1.226-.507 2.65 2.65 0 0 0 .899-1.341c.164-.545.245-1.09.245-1.635 0-.501-.076-1.008-.228-1.52a3.1 3.1 0 0 0-.785-1.325 2.965 2.965 0 0 0 1.259-.457c.359-.24.654-.54.883-.9a4.35 4.35 0 0 0 .523-1.193c.12-.436.18-.883.18-1.341 0-.938-.147-1.701-.442-2.289-.294-.589-.692-1.047-1.193-1.374-.502-.327-1.101-.545-1.799-.654a14.644 14.644 0 0 0-2.256-.163c-.524 0-1.052-.011-1.586-.033a38.54 38.54 0 0 0-1.586-.033c-.524 0-1.101.022-1.733.066a9.11 9.11 0 0 0-1.832.311 4.761 4.761 0 0 0-1.586.768c-.468.349-.79.828-.964 1.439-.066.24-.12.697-.164 1.373a59.525 59.525 0 0 0-.098 2.387c-.022.916-.033 1.897-.033 2.944v7.455c0 1.025.049 1.859.147 2.502.099.643.317 1.15.654 1.521.338.37.823.632 1.456.784.632.153 1.482.24 2.55.262 1.134.044 2.257.082 3.369.115 1.111.032 2.234.049 3.368.049Zm2.322 3.564c-1.134 0-2.262-.022-3.385-.065a164.003 164.003 0 0 0-3.385-.098c-.566 0-1.15-.022-1.749-.066a6.839 6.839 0 0 1-1.717-.343 4.268 4.268 0 0 1-1.439-.818c-.414-.359-.697-.866-.85-1.52-.698-.197-1.226-.507-1.586-.932a3.645 3.645 0 0 1-.752-1.456 7.443 7.443 0 0 1-.229-1.749c-.011-.621-.016-1.226-.016-1.815v-5.265a242.207 242.207 0 0 1 .065-5.51c.022-.861.055-1.613.098-2.256.044-.643.098-1.096.164-1.357.218-.785.594-1.412 1.128-1.881a5.739 5.739 0 0 1 1.831-1.079 8.403 8.403 0 0 1 2.191-.474c.774-.065 1.51-.098 2.207-.098.524 0 1.047.011 1.57.033.523.021 1.046.032 1.57.032.61 0 1.242.027 1.896.082a7.435 7.435 0 0 1 1.864.392 5.267 5.267 0 0 1 1.603.9c.479.392.85.915 1.112 1.569.545.24.991.534 1.34.883.349.349.633.747.851 1.194.218.447.37.926.457 1.439.088.512.131 1.041.131 1.586 0 .894-.163 1.76-.49 2.599-.327.84-.894 1.488-1.701 1.946.153.349.251.709.294 1.079.044.371.066.742.066 1.112 0 .436-.038.861-.115 1.275a4.753 4.753 0 0 1-.376 1.178 4.445 4.445 0 0 1 1.734 1.88c.392.796.588 1.641.588 2.534 0 .72-.12 1.39-.36 2.011a4.833 4.833 0 0 1-1.013 1.619c-.436.458-.96.812-1.57 1.063-.61.251-1.286.376-2.027.376ZM195.978 16.318c0-.698-.098-1.335-.295-1.913a6.837 6.837 0 0 0-.784-1.603 7.721 7.721 0 0 0-1.178-1.373 18.09 18.09 0 0 0-1.471-1.226 5.282 5.282 0 0 0 1.292-.229 4.216 4.216 0 0 0 1.16-.556c.349-.24.627-.54.834-.899.207-.36.311-.791.311-1.292 0-.981-.24-1.842-.719-2.583a6.479 6.479 0 0 0-1.832-1.864 8.663 8.663 0 0 0-2.469-1.145 9.438 9.438 0 0 0-2.632-.392c-1.09 0-2.126.158-3.107.474a7.933 7.933 0 0 0-2.583 1.373 6.687 6.687 0 0 0-1.782 2.24c-.447.894-.671 1.919-.671 3.074 0 1.134.295 2.175.883 3.123a8.52 8.52 0 0 0 2.224 2.404 5.741 5.741 0 0 0-1.57.278 4.338 4.338 0 0 0-1.34.703 3.274 3.274 0 0 0-.932 1.144c-.229.458-.344.981-.344 1.57 0 1.068.251 1.995.752 2.779a6.372 6.372 0 0 0 1.946 1.946 9.025 9.025 0 0 0 2.649 1.145c.97.25 1.913.376 2.828.376 1.156 0 2.262-.158 3.32-.474a8.563 8.563 0 0 0 2.812-1.423 7.107 7.107 0 0 0 1.962-2.354c.491-.938.736-2.039.736-3.303Zm3.597 2.322c0 1.438-.273 2.708-.818 3.809a8.005 8.005 0 0 1-2.223 2.764 9.707 9.707 0 0 1-3.238 1.667 13.086 13.086 0 0 1-3.826.556 12.265 12.265 0 0 1-4.774-.981 9.132 9.132 0 0 1-2.109-1.259 6.624 6.624 0 0 1-1.586-1.815c-1.025-.676-1.826-1.493-2.404-2.452-.578-.96-.866-2.06-.866-3.303 0-1.047.239-1.946.719-2.698s1.199-1.324 2.158-1.717c-1.199-1.395-1.798-2.997-1.798-4.807 0-1.33.25-2.518.752-3.564a7.766 7.766 0 0 1 2.044-2.649 8.961 8.961 0 0 1 2.992-1.635A11.486 11.486 0 0 1 188.195 0c.741 0 1.499.087 2.273.262.774.174 1.515.43 2.223.768a9.68 9.68 0 0 1 1.979 1.259 6.674 6.674 0 0 1 1.504 1.733 7.568 7.568 0 0 1 2.354 2.355c.589.937.883 2.005.883 3.204 0 .763-.196 1.456-.588 2.077a4.313 4.313 0 0 1-1.603 1.488c.763.763 1.347 1.591 1.75 2.485.403.894.605 1.897.605 3.009ZM223.349 11.543c.37-.523.648-1.1.833-1.733a6.685 6.685 0 0 0 .278-1.896 4.85 4.85 0 0 0-.539-2.257 6.091 6.091 0 0 0-1.423-1.815 6.546 6.546 0 0 0-2.011-1.193 6.472 6.472 0 0 0-2.305-.425c-.829 0-1.641.136-2.436.408a6.94 6.94 0 0 0-2.126 1.161 5.916 5.916 0 0 0-1.504 1.815c-.382.709-.573 1.51-.573 2.404 0 .632.099 1.248.295 1.847.196.6.469 1.161.817 1.684a6.576 6.576 0 0 0-1.684 2.437 7.782 7.782 0 0 0-.572 2.926c0 .938.18 1.821.54 2.649a7.081 7.081 0 0 0 1.455 2.175 7.01 7.01 0 0 0 2.158 1.488 6.42 6.42 0 0 0 2.649.556c.785 0 1.548-.12 2.289-.36.741-.24 1.45-.545 2.125-.916a3.19 3.19 0 0 0 1.881.932c.73.098 1.444.148 2.142.148.348 0 .725-.022 1.128-.066a3.97 3.97 0 0 0 1.112-.278c.338-.142.616-.349.834-.621.218-.273.327-.638.327-1.096 0-.348-.071-.697-.213-1.046a5.696 5.696 0 0 0-.54-1.014 9.838 9.838 0 0 0-.703-.932c-.25-.294-.485-.572-.703-.834.415-.567.785-1.171 1.112-1.815a4.447 4.447 0 0 0 .491-2.043c0-.524-.115-.938-.344-1.243a2.24 2.24 0 0 0-.883-.703 3.741 3.741 0 0 0-1.177-.311 12.509 12.509 0 0 0-1.259-.065c-.24 0-.485.005-.736.016-.25.011-.496.016-.735.016ZM218.182.981c1.308 0 2.556.327 3.744.981a7.606 7.606 0 0 1 2.829 2.649 7.72 7.72 0 0 1 2.387 2.403c.61.971.916 2.055.916 3.254v.278c0 .076-.011.169-.033.278.872.392 1.406 1.068 1.602 2.028 1.613.436 2.42 1.536 2.42 3.302 0 .698-.12 1.363-.36 1.995a9.313 9.313 0 0 1-.915 1.799c.479.566.904 1.171 1.275 1.815.371.643.556 1.346.556 2.109 0 .654-.131 1.188-.392 1.602a3.018 3.018 0 0 1-1.03.998c-.426.25-.905.425-1.439.523a8.775 8.775 0 0 1-1.586.147c-.763 0-1.515-.044-2.257-.131a5.214 5.214 0 0 1-2.093-.719c-.654.305-1.346.556-2.076.752a8.479 8.479 0 0 1-2.207.294 7.779 7.779 0 0 1-3.81-.981 8.04 8.04 0 0 1-2.894-2.681 8.005 8.005 0 0 1-2.682-2.911 7.934 7.934 0 0 1-.981-3.859c0-1.002.158-1.983.474-2.943a7.335 7.335 0 0 1 1.488-2.583c-.545-1.09-.817-2.213-.817-3.368 0-1.068.223-2.039.67-2.911a7.058 7.058 0 0 1 1.766-2.223 7.891 7.891 0 0 1 2.518-1.406 8.917 8.917 0 0 1 2.927-.491ZM247.776 23.708c.742 0 1.396-.032 1.962-.098.567-.065 1.041-.223 1.423-.474.381-.251.67-.61.866-1.079.197-.469.295-1.117.295-1.946 0-.654-.033-1.33-.098-2.027a7.113 7.113 0 0 0 3.106-.687 8 8 0 0 0 2.486-1.831 8.753 8.753 0 0 0 1.651-2.633 8.22 8.22 0 0 0 .605-3.123c0-1.831-.387-3.292-1.161-4.382a7.558 7.558 0 0 0-3.008-2.501c-1.232-.578-2.6-.949-4.104-1.112a40.734 40.734 0 0 0-4.415-.245c-.807 0-1.45.158-1.929.474-.48.316-.851.725-1.112 1.226a5.208 5.208 0 0 0-.524 1.717 14.5 14.5 0 0 0-.13 1.946c0 .697.027 1.406.081 2.125.055.72.082 1.428.082 2.126 0 1.46-.065 2.91-.196 4.349a47.952 47.952 0 0 0-.196 4.349c0 1.483.376 2.491 1.128 3.025.752.534 1.815.801 3.188.801Zm2.322 3.565c-.545 0-1.084-.033-1.619-.098a5.69 5.69 0 0 1-1.504-.393 3.965 3.965 0 0 1-1.242-.817c-.36-.349-.638-.818-.834-1.406-.545-.175-.992-.42-1.341-.736a3.55 3.55 0 0 1-.818-1.079 4.707 4.707 0 0 1-.408-1.341 9.806 9.806 0 0 1-.115-1.521c0-1.46.066-2.91.196-4.349.131-1.439.197-2.889.197-4.349 0-.72-.028-1.434-.082-2.142a27.686 27.686 0 0 1-.082-2.142c0-.872.06-1.706.18-2.502.12-.795.36-1.493.719-2.093A3.975 3.975 0 0 1 244.85.867c.643-.36 1.487-.54 2.534-.54 1.068 0 2.213.044 3.434.131a20.27 20.27 0 0 1 3.564.572 11.82 11.82 0 0 1 3.221 1.341 7.332 7.332 0 0 1 2.436 2.403c1.308.851 2.235 1.913 2.78 3.189.545 1.275.817 2.676.817 4.202a9.293 9.293 0 0 1-.588 3.254 10.133 10.133 0 0 1-1.619 2.861 9.442 9.442 0 0 1-2.453 2.142 8.359 8.359 0 0 1-3.09 1.128c0 1.177-.071 2.137-.212 2.878-.142.741-.42 1.324-.834 1.749-.414.425-1.003.714-1.766.867-.763.152-1.755.229-2.976.229ZM272.695 1.57c-1.112 0-2.104.038-2.976.114-.872.076-1.613.289-2.224.638-.61.349-1.074.894-1.39 1.635-.316.741-.474 1.766-.474 3.074 0 1.722.016 3.439.049 5.15a267.203 267.203 0 0 1 .033 8.077c-.011.796.114 1.439.376 1.93.262.49.736.839 1.422 1.046.687.207 1.717.311 3.091.311.392 0 .785-.017 1.177-.049a4.342 4.342 0 0 0 1.095-.229c.338-.12.633-.311.883-.572.251-.262.42-.622.507-1.08.109.415.289.753.54 1.014.251.262.55.469.899.621.349.153.714.262 1.096.328a6.7 6.7 0 0 0 1.128.098c.61 0 1.21-.028 1.798-.082.589-.055 1.101-.185 1.537-.393a2.478 2.478 0 0 0 1.063-.981c.273-.447.409-1.062.409-1.847 0-.981-.207-1.913-.622-2.796a15.707 15.707 0 0 0-1.438-2.469 6.983 6.983 0 0 0 1.569-2.633 9.7 9.7 0 0 0 .491-3.057c0-1.592-.262-2.9-.785-3.924-.523-1.025-1.243-1.826-2.158-2.404-.916-.577-1.984-.975-3.205-1.193a22.129 22.129 0 0 0-3.891-.327Zm0-1.243c.893 0 1.825.044 2.796.131.97.087 1.907.272 2.812.556a9.887 9.887 0 0 1 2.518 1.193 6.17 6.17 0 0 1 1.913 2.044c1.33.829 2.256 1.902 2.779 3.221.524 1.319.785 2.742.785 4.268a12.03 12.03 0 0 1-.392 3.041 8.005 8.005 0 0 1-1.308 2.747c.479.763.883 1.586 1.21 2.469a7.8 7.8 0 0 1 .49 2.73c0 1.047-.152 1.87-.458 2.469-.305.6-.724 1.052-1.259 1.357-.534.306-1.171.496-1.913.573-.741.076-1.537.114-2.387.114-.632 0-1.27-.065-1.913-.196a3.863 3.863 0 0 1-1.717-.818 3.124 3.124 0 0 1-1.798.785c-.676.066-1.33.098-1.962.098-.567 0-1.161-.016-1.782-.049a7.706 7.706 0 0 1-1.766-.294 3.889 3.889 0 0 1-1.472-.801c-.425-.371-.736-.883-.932-1.537-.981-.305-1.64-.812-1.978-1.521-.338-.708-.507-1.542-.507-2.502 0-2.245-.011-4.474-.033-6.687a672.706 672.706 0 0 1-.033-6.687c0-1.592.18-2.834.54-3.728.36-.894.888-1.559 1.586-1.995.698-.436 1.564-.708 2.6-.817a34.591 34.591 0 0 1 3.581-.164ZM300.294 23.676c1.112 0 2.006-.36 2.682-1.08.676-.719 1.014-1.635 1.014-2.746 0-.458-.066-.9-.197-1.325a3.762 3.762 0 0 0-.588-1.161 4.08 4.08 0 0 0-.932-.899 3.143 3.143 0 0 0-1.227-.507c.436-.349.736-.796.9-1.341.163-.545.245-1.09.245-1.635a5.29 5.29 0 0 0-.229-1.52 3.09 3.09 0 0 0-.785-1.325c.48-.065.9-.218 1.259-.457.36-.24.654-.54.883-.9a4.35 4.35 0 0 0 .523-1.193c.12-.436.18-.883.18-1.341 0-.938-.147-1.701-.441-2.289-.295-.589-.692-1.047-1.194-1.374-.501-.327-1.101-.545-1.798-.654a14.648 14.648 0 0 0-2.257-.163 38.54 38.54 0 0 1-1.586-.033 38.54 38.54 0 0 0-1.586-.033c-.523 0-1.101.022-1.733.066a9.1 9.1 0 0 0-1.831.311 4.752 4.752 0 0 0-1.586.768c-.469.349-.79.828-.965 1.439-.065.24-.12.697-.163 1.373a57.711 57.711 0 0 0-.098 2.387c-.022.916-.033 1.897-.033 2.944v7.455c0 1.025.049 1.859.147 2.502.098.643.316 1.15.654 1.521.338.37.823.632 1.455.784.632.153 1.483.24 2.551.262 1.134.044 2.256.082 3.368.115 1.112.032 2.235.049 3.368.049Zm2.322 3.564c-1.134 0-2.262-.022-3.384-.065a164.003 164.003 0 0 0-3.385-.098c-.567 0-1.15-.022-1.75-.066a6.84 6.84 0 0 1-1.716-.343 4.268 4.268 0 0 1-1.439-.818c-.414-.359-.698-.866-.85-1.52-.698-.197-1.227-.507-1.586-.932a3.647 3.647 0 0 1-.753-1.456 7.443 7.443 0 0 1-.228-1.749c-.011-.621-.017-1.226-.017-1.815v-5.265a242.743 242.743 0 0 1 .066-5.51c.021-.861.054-1.613.098-2.256.043-.643.098-1.096.163-1.357.218-.785.594-1.412 1.128-1.881a5.743 5.743 0 0 1 1.832-1.079 8.394 8.394 0 0 1 2.191-.474 26.417 26.417 0 0 1 2.207-.098c.523 0 1.046.011 1.57.033.523.021 1.046.032 1.569.032.611 0 1.243.027 1.897.082a7.444 7.444 0 0 1 1.864.392 5.262 5.262 0 0 1 1.602.9c.48.392.85.915 1.112 1.569.545.24.992.534 1.341.883s.632.747.85 1.194c.218.447.371.926.458 1.439.087.512.131 1.041.131 1.586 0 .894-.164 1.76-.491 2.599-.327.84-.894 1.488-1.7 1.946.152.349.25.709.294 1.079.044.371.065.742.065 1.112 0 .436-.038.861-.114 1.275a4.795 4.795 0 0 1-.376 1.178 4.436 4.436 0 0 1 1.733 1.88c.392.796.589 1.641.589 2.534 0 .72-.12 1.39-.36 2.011a4.852 4.852 0 0 1-1.014 1.619 4.501 4.501 0 0 1-1.569 1.063 5.289 5.289 0 0 1-2.028.376ZM317.07 21.321c.283.589.67 1.047 1.161 1.374.49.327 1.025.572 1.602.735a8.147 8.147 0 0 0 1.799.295c.621.032 1.215.049 1.782.049 1.526 0 2.583-.376 3.172-1.128.589-.753.883-1.848.883-3.287l-.033-13.146c0-.654-.043-1.259-.131-1.815a3.975 3.975 0 0 0-.506-1.455 2.627 2.627 0 0 0-1.08-.981c-.468-.24-1.073-.36-1.814-.36-.458 0-.894.017-1.309.049-.414.033-.779.12-1.095.262a1.826 1.826 0 0 0-.785.687c-.207.316-.321.757-.343 1.324a3.283 3.283 0 0 0-.801-.981 4.687 4.687 0 0 0-1.145-.703 6.612 6.612 0 0 0-2.567-.54c-1.177 0-2.164.05-2.959.148-.796.098-1.428.332-1.897.703-.469.37-.807.926-1.014 1.667-.207.742-.31 1.745-.31 3.009 0 2.18.049 4.344.147 6.491.098 2.147.147 4.311.147 6.491 0 .872.125 1.543.376 2.011.251.469.599.818 1.046 1.047.447.229.976.365 1.586.409.611.043 1.265.065 1.962.065.785 0 1.336-.218 1.652-.654.316-.436.474-1.025.474-1.766ZM323.283.36c.545 0 1.068.022 1.57.065.501.044.959.158 1.373.343.415.186.785.447 1.112.785.327.338.6.801.818 1.39.588.218 1.068.529 1.439.932.37.403.659.856.866 1.357.207.502.349 1.041.425 1.619.077.578.115 1.139.115 1.684 0 2.202.005 4.393.016 6.573.011 2.18.016 4.371.016 6.573 0 1.875-.392 3.286-1.177 4.235-.785.948-2.158 1.422-4.12 1.422-.48 0-.97-.011-1.472-.033-.501-.021-.997-.07-1.488-.147a9.16 9.16 0 0 1-1.439-.343 5.2 5.2 0 0 1-1.324-.654 2.493 2.493 0 0 1-1.226.899 4.769 4.769 0 0 1-1.521.245c-.588 0-1.193-.01-1.815-.032a7.426 7.426 0 0 1-1.749-.262 3.819 3.819 0 0 1-1.455-.768c-.426-.36-.736-.889-.932-1.586-.545-.153-.987-.376-1.325-.671a3.124 3.124 0 0 1-.785-1.03 4.468 4.468 0 0 1-.376-1.292 10.569 10.569 0 0 1-.098-1.455c0-2.18-.049-4.344-.147-6.491a142.351 142.351 0 0 1-.147-6.491c0-1.548.114-2.769.343-3.663.229-.893.632-1.569 1.21-2.027.578-.458 1.341-.752 2.289-.883.949-.131 2.142-.196 3.581-.196.676 0 1.363.098 2.06.294a6.82 6.82 0 0 1 1.897.85 2.784 2.784 0 0 1 1.57-1.013 8.032 8.032 0 0 1 1.896-.229ZM340.222 23.61c2.224 0 3.99-.218 5.298-.654 1.308-.436 2.305-1.117 2.992-2.044.687-.926 1.134-2.109 1.341-3.548.207-1.439.311-3.172.311-5.199 0-2.202-.246-3.984-.736-5.347-.491-1.362-1.227-2.425-2.208-3.188-.981-.763-2.218-1.276-3.711-1.537-1.494-.262-3.254-.393-5.281-.393-1.003 0-1.794.109-2.371.327-.578.218-1.019.545-1.325.982-.305.436-.501.986-.588 1.651a17.96 17.96 0 0 0-.131 2.305c0 1.112.038 2.229.114 3.352a48.98 48.98 0 0 1 .033 6.23 49.999 49.999 0 0 0-.082 2.877c0 .393.017.796.049 1.21.033.415.137.807.311 1.178.218.479.567.844 1.046 1.095.48.251 1.014.425 1.603.523.588.098 1.183.153 1.782.164.6.011 1.117.016 1.553.016Zm2.355 3.565c-.611 0-1.297-.006-2.06-.017a10.736 10.736 0 0 1-2.224-.261 5.345 5.345 0 0 1-1.913-.834c-.556-.393-.932-.959-1.128-1.701-.611-.196-1.09-.457-1.439-.784a3.036 3.036 0 0 1-.769-1.129 5.073 5.073 0 0 1-.31-1.389 18.39 18.39 0 0 1-.066-1.603c0-.981.022-1.946.066-2.894.043-.948.065-1.913.065-2.894 0-1.112-.038-2.229-.114-3.352a48.98 48.98 0 0 1-.115-3.352c0-1.133.06-2.109.18-2.926.12-.818.376-1.494.769-2.028.392-.534.964-.926 1.716-1.177.753-.251 1.75-.376 2.993-.376 1.002 0 2.06.033 3.172.098 1.111.065 2.191.229 3.237.49 1.046.262 2.022.66 2.927 1.194.904.534 1.651 1.281 2.24 2.24.85.523 1.537 1.166 2.06 1.929a9.04 9.04 0 0 1 1.194 2.486c.272.894.452 1.82.539 2.779.087.96.131 1.897.131 2.813 0 2.267-.115 4.202-.343 5.804-.229 1.602-.731 2.916-1.505 3.941-.774 1.024-1.896 1.771-3.368 2.24-1.471.468-3.45.703-5.935.703ZM359.156 23.643c1.679 0 2.922-.333 3.728-.997.807-.665 1.286-1.848 1.439-3.549.109.785.245 1.467.409 2.044.163.578.409 1.058.736 1.439.327.382.763.66 1.308.834.545.174 1.253.262 2.125.262.545 0 1.112-.028 1.701-.082a5.23 5.23 0 0 0 1.602-.393c.48-.207.872-.517 1.177-.932.306-.414.458-.981.458-1.7 0-.349-.114-1.003-.343-1.962a76.72 76.72 0 0 0-.883-3.319 131.967 131.967 0 0 0-2.535-7.816 52.313 52.313 0 0 0-1.209-3.09c-.371-.85-.665-1.384-.883-1.602-.502-.502-1.063-.812-1.684-.932a10.25 10.25 0 0 0-1.946-.18c-.349 0-.692.005-1.03.016a11.09 11.09 0 0 0-1.03.082c-.851.109-1.516.414-1.995.915a5.22 5.22 0 0 0-1.112 1.799 11.873 11.873 0 0 0-.589 2.224c-.13.785-.272 1.504-.425 2.158-.109.436-.261.986-.458 1.651-.196.665-.414 1.396-.654 2.191-.239.796-.485 1.614-.735 2.453a69.64 69.64 0 0 0-.671 2.387 48.776 48.776 0 0 0-.49 2.044c-.131.61-.196 1.079-.196 1.406 0 .589.13 1.057.392 1.406s.6.616 1.014.801c.414.186.866.306 1.357.36.49.055.964.082 1.422.082Zm2.322 3.564c-.523 0-1.063-.027-1.619-.081a6.13 6.13 0 0 1-1.569-.36 3.716 3.716 0 0 1-1.292-.818c-.371-.359-.632-.834-.785-1.422-1.657-.545-2.485-1.722-2.485-3.532 0-.37.098-.975.294-1.815.196-.839.425-1.728.687-2.665.262-.937.523-1.837.785-2.698.261-.861.458-1.509.588-1.945.24-.785.469-1.576.687-2.371.218-.796.403-1.597.556-2.404a26.93 26.93 0 0 1 .491-2.224 8.513 8.513 0 0 1 .801-2.011 4.95 4.95 0 0 1 1.357-1.537c.567-.425 1.297-.692 2.191-.801.37-.043.736-.071 1.095-.082.36-.01.725-.016 1.096-.016.806 0 1.624.093 2.452.278a3.966 3.966 0 0 1 2.093 1.194c.131.13.262.338.393.621.13.283.239.512.327.687.305.109.594.245.866.408.273.164.518.366.736.605.218.24.529.818.932 1.734.403.915.834 2 1.292 3.253.458 1.254.921 2.606 1.389 4.055.469 1.45.894 2.823 1.276 4.121.381 1.297.692 2.447.932 3.45.24 1.002.36 1.689.36 2.06 0 .959-.175 1.727-.524 2.305a3.528 3.528 0 0 1-1.389 1.325c-.578.305-1.238.501-1.979.588a19.62 19.62 0 0 1-2.289.131c-.414 0-.845-.016-1.292-.049a6.284 6.284 0 0 1-1.291-.229 4.44 4.44 0 0 1-1.161-.523 3.315 3.315 0 0 1-.932-.899c-.632.741-1.406 1.204-2.322 1.389-.916.186-1.831.278-2.747.278ZM396.403 16.318c0-.698-.098-1.335-.294-1.913a6.88 6.88 0 0 0-.785-1.603 7.756 7.756 0 0 0-1.177-1.373 18.28 18.28 0 0 0-1.472-1.226 5.274 5.274 0 0 0 1.292-.229 4.236 4.236 0 0 0 1.161-.556c.348-.24.626-.54.833-.899.208-.36.311-.791.311-1.292 0-.981-.24-1.842-.719-2.583a6.466 6.466 0 0 0-1.832-1.864 8.663 8.663 0 0 0-2.469-1.145 9.438 9.438 0 0 0-2.632-.392c-1.09 0-2.126.158-3.107.474a7.933 7.933 0 0 0-2.583 1.373 6.687 6.687 0 0 0-1.782 2.24c-.447.894-.671 1.919-.671 3.074 0 1.134.295 2.175.883 3.123a8.52 8.52 0 0 0 2.224 2.404 5.741 5.741 0 0 0-1.57.278 4.338 4.338 0 0 0-1.34.703 3.285 3.285 0 0 0-.932 1.144c-.229.458-.344.981-.344 1.57 0 1.068.251 1.995.752 2.779a6.372 6.372 0 0 0 1.946 1.946 9.025 9.025 0 0 0 2.649 1.145c.97.25 1.913.376 2.829.376 1.155 0 2.261-.158 3.319-.474a8.553 8.553 0 0 0 2.812-1.423 7.083 7.083 0 0 0 1.962-2.354c.491-.938.736-2.039.736-3.303ZM400 18.64c0 1.438-.273 2.708-.818 3.809a8.005 8.005 0 0 1-2.223 2.764 9.707 9.707 0 0 1-3.238 1.667 13.08 13.08 0 0 1-3.826.556 12.273 12.273 0 0 1-4.774-.981 9.132 9.132 0 0 1-2.109-1.259 6.624 6.624 0 0 1-1.586-1.815c-1.025-.676-1.826-1.493-2.404-2.452-.577-.96-.866-2.06-.866-3.303 0-1.047.239-1.946.719-2.698s1.199-1.324 2.158-1.717c-1.199-1.395-1.798-2.997-1.798-4.807 0-1.33.251-2.518.752-3.564a7.778 7.778 0 0 1 2.044-2.649 8.961 8.961 0 0 1 2.992-1.635A11.495 11.495 0 0 1 388.62 0c.741 0 1.499.087 2.273.262.774.174 1.515.43 2.223.768a9.68 9.68 0 0 1 1.979 1.259 6.674 6.674 0 0 1 1.504 1.733 7.582 7.582 0 0 1 2.355 2.355c.588.937.882 2.005.882 3.204 0 .763-.196 1.456-.588 2.077a4.318 4.318 0 0 1-1.602 1.488c.763.763 1.346 1.591 1.749 2.485.403.894.605 1.897.605 3.009Z" style="fill-rule:nonzero"/>
    </symbol>
    <!-- SOCIAL -->
    <symbol id="x-twitter" viewBox="0 0 512 512">
        <path d="M389.2 48h70.6L305.6 224.2 487 464H345L233.7 318.6 106.5 464H35.8L200.7 275.5 26.8 48H172.4L272.9 180.9 389.2 48zM364.4 421.8h39.1L151.1 88h-42L364.4 421.8z"/>
    </symbol>
    <symbol id="threads" viewBox="0 0 448 512">
        <path d="M331.5 235.7c2.2 .9 4.2 1.9 6.3 2.8c29.2 14.1 50.6 35.2 61.8 61.4c15.7 36.5 17.2 95.8-30.3 143.2c-36.2 36.2-80.3 52.5-142.6 53h-.3c-70.2-.5-124.1-24.1-160.4-70.2c-32.3-41-48.9-98.1-49.5-169.6V256v-.2C17 184.3 33.6 127.2 65.9 86.2C102.2 40.1 156.2 16.5 226.4 16h.3c70.3 .5 124.9 24 162.3 69.9c18.4 22.7 32 50 40.6 81.7l-40.4 10.8c-7.1-25.8-17.8-47.8-32.2-65.4c-29.2-35.8-73-54.2-130.5-54.6c-57 .5-100.1 18.8-128.2 54.4C72.1 146.1 58.5 194.3 58 256c.5 61.7 14.1 109.9 40.3 143.3c28 35.6 71.2 53.9 128.2 54.4c51.4-.4 85.4-12.6 113.7-40.9c32.3-32.2 31.7-71.8 21.4-95.9c-6.1-14.2-17.1-26-31.9-34.9c-3.7 26.9-11.8 48.3-24.7 64.8c-17.1 21.8-41.4 33.6-72.7 35.3c-23.6 1.3-46.3-4.4-63.9-16c-20.8-13.8-33-34.8-34.3-59.3c-2.5-48.3 35.7-83 95.2-86.4c21.1-1.2 40.9-.3 59.2 2.8c-2.4-14.8-7.3-26.6-14.6-35.2c-10-11.7-25.6-17.7-46.2-17.8H227c-16.6 0-39 4.6-53.3 26.3l-34.4-23.6c19.2-29.1 50.3-45.1 87.8-45.1h.8c62.6 .4 99.9 39.5 103.7 107.7l-.2 .2zm-156 68.8c1.3 25.1 28.4 36.8 54.6 35.3c25.6-1.4 54.6-11.4 59.5-73.2c-13.2-2.9-27.8-4.4-43.4-4.4c-4.8 0-9.6 .1-14.4 .4c-42.9 2.4-57.2 23.2-56.2 41.8l-.1 .1z"/>
    </symbol>
    <symbol id="mastodon" viewBox="0 0 448 512">
        <path d="M433 179.11c0-97.2-63.71-125.7-63.71-125.7-62.52-28.7-228.56-28.4-290.48 0 0 0-63.72 28.5-63.72 125.7 0 115.7-6.6 259.4 105.63 289.1 40.51 10.7 75.32 13 103.33 11.4 50.81-2.8 79.32-18.1 79.32-18.1l-1.7-36.9s-36.31 11.4-77.12 10.1c-40.41-1.4-83-4.4-89.63-54a102.54 102.54 0 0 1-.9-13.9c85.63 20.9 158.65 9.1 178.75 6.7 56.12-6.7 105-41.3 111.23-72.9 9.8-49.8 9-121.5 9-121.5zm-75.12 125.2h-46.63v-114.2c0-49.7-64-51.6-64 6.9v62.5h-46.33V197c0-58.5-64-56.6-64-6.9v114.2H90.19c0-122.1-5.2-147.9 18.41-175 25.9-28.9 79.82-30.8 103.83 6.1l11.6 19.5 11.6-19.5c24.11-37.1 78.12-34.8 103.83-6.1 23.71 27.3 18.4 53 18.4 175z"/>
    </symbol>
    <symbol id="linkedin-in" viewBox="0 0 448 512">
        <path d="M100.28 448H7.4V148.9h92.88zM53.79 108.1C24.09 108.1 0 83.5 0 53.8a53.79 53.79 0 0 1 107.58 0c0 29.7-24.1 54.3-53.79 54.3zM447.9 448h-92.68V302.4c0-34.7-.7-79.2-48.29-79.2-48.29 0-55.69 37.7-55.69 76.7V448h-92.78V148.9h89.08v40.8h1.3c12.4-23.5 42.69-48.3 87.88-48.3 94 0 111.28 61.9 111.28 142.3V448z"/>
    </symbol>
    <symbol id="reddit" viewBox="0 0 512 512">
        <path d="M0 256C0 114.6 114.6 0 256 0S512 114.6 512 256s-114.6 256-256 256L37.1 512c-13.7 0-20.5-16.5-10.9-26.2L75 437C28.7 390.7 0 326.7 0 256zM349.6 153.6c23.6 0 42.7-19.1 42.7-42.7s-19.1-42.7-42.7-42.7c-20.6 0-37.8 14.6-41.8 34c-34.5 3.7-61.4 33-61.4 68.4l0 .2c-37.5 1.6-71.8 12.3-99 29.1c-10.1-7.8-22.8-12.5-36.5-12.5c-33 0-59.8 26.8-59.8 59.8c0 24 14.1 44.6 34.4 54.1c2 69.4 77.6 125.2 170.6 125.2s168.7-55.9 170.6-125.3c20.2-9.6 34.1-30.2 34.1-54c0-33-26.8-59.8-59.8-59.8c-13.7 0-26.3 4.6-36.4 12.4c-27.4-17-62.1-27.7-100-29.1l0-.2c0-25.4 18.9-46.5 43.4-49.9l0 0c4.4 18.8 21.3 32.8 41.5 32.8zM177.1 246.9c16.7 0 29.5 17.6 28.5 39.3s-13.5 29.6-30.3 29.6s-31.4-8.8-30.4-30.5s15.4-38.3 32.1-38.3zm190.1 38.3c1 21.7-13.7 30.5-30.4 30.5s-29.3-7.9-30.3-29.6c-1-21.7 11.8-39.3 28.5-39.3s31.2 16.6 32.1 38.3zm-48.1 56.7c-10.3 24.6-34.6 41.9-63 41.9s-52.7-17.3-63-41.9c-1.2-2.9 .8-6.2 3.9-6.5c18.4-1.9 38.3-2.9 59.1-2.9s40.7 1 59.1 2.9c3.1 .3 5.1 3.6 3.9 6.5z"/>
    </symbol>
    <symbol id="whatsapp" viewBox="0 0 448 512">
        <path d="M380.9 97.1C339 55.1 283.2 32 223.9 32c-122.4 0-222 99.6-222 222 0 39.1 10.2 77.3 29.6 111L0 480l117.7-30.9c32.4 17.7 68.9 27 106.1 27h.1c122.3 0 224.1-99.6 224.1-222 0-59.3-25.2-115-67.1-157zm-157 341.6c-33.2 0-65.7-8.9-94-25.7l-6.7-4-69.8 18.3L72 359.2l-4.4-7c-18.5-29.4-28.2-63.3-28.2-98.2 0-101.7 82.8-184.5 184.6-184.5 49.3 0 95.6 19.2 130.4 54.1 34.8 34.9 56.2 81.2 56.1 130.5 0 101.8-84.9 184.6-186.6 184.6zm101.2-138.2c-5.5-2.8-32.8-16.2-37.9-18-5.1-1.9-8.8-2.8-12.5 2.8-3.7 5.6-14.3 18-17.6 21.8-3.2 3.7-6.5 4.2-12 1.4-32.6-16.3-54-29.1-75.5-66-5.7-9.8 5.7-9.1 16.3-30.3 1.8-3.7.9-6.9-.5-9.7-1.4-2.8-12.5-30.1-17.1-41.2-4.5-10.8-9.1-9.3-12.5-9.5-3.2-.2-6.9-.2-10.6-.2-3.7 0-9.7 1.4-14.8 6.9-5.1 5.6-19.4 19-19.4 46.3 0 27.3 19.9 53.7 22.6 57.4 2.8 3.7 39.1 59.7 94.8 83.8 35.2 15.2 49 16.5 66.6 13.9 10.7-1.6 32.8-13.4 37.4-26.4 4.6-13 4.6-24.1 3.2-26.4-1.3-2.5-5-3.9-10.5-6.6z"/>
    </symbol>
    <symbol id="youtube" viewBox="0 0 576 512">
        <path d="M549.655 124.083c-6.281-23.65-24.787-42.276-48.284-48.597C458.781 64 288 64 288 64S117.22 64 74.629 75.486c-23.497 6.322-42.003 24.947-48.284 48.597-11.412 42.867-11.412 132.305-11.412 132.305s0 89.438 11.412 132.305c6.281 23.65 24.787 41.5 48.284 47.821C117.22 448 288 448 288 448s170.78 0 213.371-11.486c23.497-6.321 42.003-24.171 48.284-47.821 11.412-42.867 11.412-132.305 11.412-132.305s0-89.438-11.412-132.305zm-317.51 213.508V175.185l142.739 81.205-142.739 81.201z"/>
    </symbol>
    <symbol id="facebook" viewBox="0 0 512 512">
        <path d="M512 256C512 114.6 397.4 0 256 0S0 114.6 0 256C0 376 82.7 476.8 194.2 504.5V334.2H141.4V256h52.8V222.3c0-87.1 39.4-127.5 125-127.5c16.2 0 44.2 3.2 55.7 6.4V172c-6-.6-16.5-1-29.6-1c-42 0-58.2 15.9-58.2 57.2V256h83.6l-14.4 78.2H287V510.1C413.8 494.8 512 386.9 512 256h0z"/>
    </symbol>
    <symbol id="pinterest" viewBox="0 0 496 512">
        <path d="M496 256c0 137-111 248-248 248-25.6 0-50.2-3.9-73.4-11.1 10.1-16.5 25.2-43.5 30.8-65 3-11.6 15.4-59 15.4-59 8.1 15.4 31.7 28.5 56.8 28.5 74.8 0 128.7-68.8 128.7-154.3 0-81.9-66.9-143.2-152.9-143.2-107 0-163.9 71.8-163.9 150.1 0 36.4 19.4 81.7 50.3 96.1 4.7 2.2 7.2 1.2 8.3-3.3.8-3.4 5-20.3 6.9-28.1.6-2.5.3-4.7-1.7-7.1-10.1-12.5-18.3-35.3-18.3-56.6 0-54.7 41.4-107.6 112-107.6 60.9 0 103.6 41.5 103.6 100.9 0 67.1-33.9 113.6-78 113.6-24.3 0-42.6-20.1-36.7-44.8 7-29.5 20.5-61.3 20.5-82.6 0-19-10.2-34.9-31.4-34.9-24.9 0-44.9 25.7-44.9 60.2 0 22 7.4 36.8 7.4 36.8s-24.5 103.8-29 123.2c-5 21.4-3 51.6-.9 71.2C65.4 450.9 0 361.1 0 256 0 119 111 8 248 8s248 111 248 248z"/>
    </symbol>
    <symbol id="medium" viewBox="0 0 640 512">
        <path d="M180.5,74.262C80.813,74.262,0,155.633,0,256S80.819,437.738,180.5,437.738,361,356.373,361,256,280.191,74.262,180.5,74.262Zm288.25,10.646c-49.845,0-90.245,76.619-90.245,171.095s40.406,171.1,90.251,171.1,90.251-76.619,90.251-171.1H559C559,161.5,518.6,84.908,468.752,84.908Zm139.506,17.821c-17.526,0-31.735,68.628-31.735,153.274s14.2,153.274,31.735,153.274S640,340.631,640,256C640,171.351,625.785,102.729,608.258,102.729Z"/>
    </symbol>
    <symbol id="instagram" viewBox="0 0 448 512">
        <path d="M224.1 141c-63.6 0-114.9 51.3-114.9 114.9s51.3 114.9 114.9 114.9S339 319.5 339 255.9 287.7 141 224.1 141zm0 189.6c-41.1 0-74.7-33.5-74.7-74.7s33.5-74.7 74.7-74.7 74.7 33.5 74.7 74.7-33.6 74.7-74.7 74.7zm146.4-194.3c0 14.9-12 26.8-26.8 26.8-14.9 0-26.8-12-26.8-26.8s12-26.8 26.8-26.8 26.8 12 26.8 26.8zm76.1 27.2c-1.7-35.9-9.9-67.7-36.2-93.9-26.2-26.2-58-34.4-93.9-36.2-37-2.1-147.9-2.1-184.9 0-35.8 1.7-67.6 9.9-93.9 36.1s-34.4 58-36.2 93.9c-2.1 37-2.1 147.9 0 184.9 1.7 35.9 9.9 67.7 36.2 93.9s58 34.4 93.9 36.2c37 2.1 147.9 2.1 184.9 0 35.9-1.7 67.7-9.9 93.9-36.2 26.2-26.2 34.4-58 36.2-93.9 2.1-37 2.1-147.8 0-184.8zM398.8 388c-7.8 19.6-22.9 34.7-42.6 42.6-29.5 11.7-99.5 9-132.1 9s-102.7 2.6-132.1-9c-19.6-7.8-34.7-22.9-42.6-42.6-11.7-29.5-9-99.5-9-132.1s-2.6-102.7 9-132.1c7.8-19.6 22.9-34.7 42.6-42.6 29.5-11.7 99.5-9 132.1-9s102.7-2.6 132.1 9c19.6 7.8 34.7 22.9 42.6 42.6 11.7 29.5 9 99.5 9 132.1s2.7 102.7-9 132.1z"/>
    </symbol>
    <!-- EXPRESSIONS -->
    <symbol id="uau" viewBox="0 0 376 107">
        <path fillRule="nonzero" d="M54.771 26.496c-14.544 0-17.712 6.192-17.712 20.016 0-13.968-3.456-20.16-18.144-20.16C-4.701 26.352.483 45.792.483 63.36c0 19.872 2.016 42.624 27.648 42.624 5.328 0 11.232-1.296 15.264-4.752 5.472 4.752 9.792 4.896 16.704 4.896 2.16 0 4.32-.288 6.336-1.296 9.648-4.752 6.912-47.088 6.912-59.472 0-13.392-4.896-18.864-18.576-18.864ZM115.827 105.696c35.424 0 33.12-11.52 33.12-42.48 0-22.608-10.512-35.856-33.84-35.856-12.24 0-27.936 4.608-27.936 19.584 0 4.752 1.728 9.216 4.896 12.672-6.624 4.32-9.36 12.672-9.36 20.16 0 20.304 15.696 25.92 33.12 25.92ZM211.587 26.496c-14.544 0-17.712 6.192-17.712 20.016 0-13.968-3.456-20.16-18.144-20.16-23.616 0-18.432 19.44-18.432 37.008 0 19.872 2.016 42.624 27.648 42.624 5.328 0 11.232-1.296 15.264-4.752 5.472 4.752 9.792 4.896 16.704 4.896 2.16 0 4.32-.288 6.336-1.296 9.648-4.752 6.912-47.088 6.912-59.472 0-13.392-4.896-18.864-18.576-18.864ZM256.227 0c-8.064 0-18.72 2.304-18.72 12.384 0 11.808-3.888 56.016 6.48 64.656-5.184 1.152-6.192 7.488-6.192 11.952 0 14.256 7.92 17.712 20.88 17.712 11.808 0 17.568-4.896 17.568-17.136 0-4.896-1.872-9.936-6.624-12.096 7.776-3.168 6.336-15.12 6.336-21.888 0-12.816 2.592-25.488 2.592-38.304 0-14.832-9.36-17.28-22.32-17.28ZM304.467 0c-8.064 0-18.72 2.304-18.72 12.384 0 11.808-3.888 56.016 6.48 64.656-5.184 1.152-6.192 7.488-6.192 11.952 0 14.256 7.92 17.712 20.88 17.712 11.808 0 17.568-4.896 17.568-17.136 0-4.896-1.872-9.936-6.624-12.096 7.776-3.168 6.336-15.12 6.336-21.888 0-12.816 2.592-25.488 2.592-38.304 0-14.832-9.36-17.28-22.32-17.28ZM352.707 0c-8.064 0-18.72 2.304-18.72 12.384 0 11.808-3.888 56.016 6.48 64.656-5.184 1.152-6.192 7.488-6.192 11.952 0 14.256 7.92 17.712 20.88 17.712 11.808 0 17.568-4.896 17.568-17.136 0-4.896-1.872-9.936-6.624-12.096 7.776-3.168 6.336-15.12 6.336-21.888 0-12.816 2.592-25.488 2.592-38.304 0-14.832-9.36-17.28-22.32-17.28Z" />
    </symbol>
    <symbol id="top" viewBox="0 0 360 127">
        <path fillRule="nonzero" d="M8.64 63.648c0 26.208 8.784 42.192 37.008 42.192 13.68 0 17.856-4.464 17.856-18.144 0-19.296-1.008-16.992-17.424-20.592v-3.456c10.08-.432 14.256-9.072 14.256-18 0-9.504-2.88-17.712-13.68-17.712l.144-6.624c0-12.816-7.056-15.84-18.576-15.84-19.584 0-19.008 5.616-19.008 22.464C.144 30.24 0 39.888 0 47.52c0 7.2.288 14.4 8.64 16.128ZM103.392 25.344c-23.04 0-33.84 21.168-33.84 41.616 0 20.592 10.512 40.176 33.408 40.176 23.328 0 34.992-20.592 34.992-41.616 0-20.304-12.384-40.176-34.56-40.176ZM172.944 27.216h-11.52c-13.248 0-15.264 12.24-15.264 22.464 0 21.456-.432 43.344.864 64.8.72 11.088 7.776 12.096 17.136 12.096 16.992 0 19.296-2.88 19.152-20.16 26.496-2.88 32.832-17.136 32.832-41.76 0-29.52-16.272-37.44-43.2-37.44ZM240.768 0c-8.064 0-18.72 2.304-18.72 12.384 0 11.808-3.888 56.016 6.48 64.656-5.184 1.152-6.192 7.488-6.192 11.952 0 14.256 7.92 17.712 20.88 17.712 11.808 0 17.568-4.896 17.568-17.136 0-4.896-1.872-9.936-6.624-12.096 7.776-3.168 6.336-15.12 6.336-21.888 0-12.816 2.592-25.488 2.592-38.304 0-14.832-9.36-17.28-22.32-17.28ZM289.008 0c-8.064 0-18.72 2.304-18.72 12.384 0 11.808-3.888 56.016 6.48 64.656-5.184 1.152-6.192 7.488-6.192 11.952 0 14.256 7.92 17.712 20.88 17.712 11.808 0 17.568-4.896 17.568-17.136 0-4.896-1.872-9.936-6.624-12.096 7.776-3.168 6.336-15.12 6.336-21.888 0-12.816 2.592-25.488 2.592-38.304 0-14.832-9.36-17.28-22.32-17.28ZM337.248 0c-8.064 0-18.72 2.304-18.72 12.384 0 11.808-3.888 56.016 6.48 64.656-5.184 1.152-6.192 7.488-6.192 11.952 0 14.256 7.92 17.712 20.88 17.712 11.808 0 17.568-4.896 17.568-17.136 0-4.896-1.872-9.936-6.624-12.096 7.776-3.168 6.336-15.12 6.336-21.888 0-12.816 2.592-25.488 2.592-38.304 0-14.832-9.36-17.28-22.32-17.28Z" />
    </symbol>
    <symbol id="omg" viewBox="0 0 397 126">
        <path fillRule="nonzero" d="M33.84 25.344C10.8 25.344 0 46.512 0 66.96c0 20.592 10.512 40.176 33.408 40.176 23.328 0 34.992-20.592 34.992-41.616 0-20.304-12.384-40.176-34.56-40.176ZM77.184 90.432c0 10.368 4.032 15.12 14.688 15.12 8.352 0 14.976-.432 19.44-8.64 2.448 6.768 8.928 8.64 15.552 8.64 7.344 0 12.96-1.872 16.704-8.64 3.024 7.488 10.08 8.64 17.28 8.64 16.416 0 15.552-11.664 15.552-24.192V59.472c0-17.136-4.32-33.12-25.056-33.12-5.76 0-11.52 1.728-16.416 4.896-5.184-3.168-11.376-4.896-17.568-4.896-4.896 0-9.936 1.296-14.112 3.888-3.024-2.736-7.344-4.32-11.376-4.32-8.784 0-15.12 4.752-15.12 13.968 0 16.848.432 33.696.432 50.544ZM185.04 108.144c0 13.392 21.744 16.992 31.824 16.992 39.168 0 34.128-39.024 34.128-66.528 0-23.184 1.152-31.248-25.632-31.248-25.92 0-42.048 5.616-42.048 35.28 0 9.36 2.448 19.584 10.368 25.344-5.904 4.176-8.64 13.248-8.64 20.16ZM277.92 0c-8.064 0-18.72 2.304-18.72 12.384 0 11.808-3.888 56.016 6.48 64.656-5.184 1.152-6.192 7.488-6.192 11.952 0 14.256 7.92 17.712 20.88 17.712 11.808 0 17.568-4.896 17.568-17.136 0-4.896-1.872-9.936-6.624-12.096 7.776-3.168 6.336-15.12 6.336-21.888 0-12.816 2.592-25.488 2.592-38.304C300.24 2.448 290.88 0 277.92 0ZM326.16 0c-8.064 0-18.72 2.304-18.72 12.384 0 11.808-3.888 56.016 6.48 64.656-5.184 1.152-6.192 7.488-6.192 11.952 0 14.256 7.92 17.712 20.88 17.712 11.808 0 17.568-4.896 17.568-17.136 0-4.896-1.872-9.936-6.624-12.096 7.776-3.168 6.336-15.12 6.336-21.888 0-12.816 2.592-25.488 2.592-38.304C348.48 2.448 339.12 0 326.16 0ZM374.4 0c-8.064 0-18.72 2.304-18.72 12.384 0 11.808-3.888 56.016 6.48 64.656-5.184 1.152-6.192 7.488-6.192 11.952 0 14.256 7.92 17.712 20.88 17.712 11.808 0 17.568-4.896 17.568-17.136 0-4.896-1.872-9.936-6.624-12.096 7.776-3.168 6.336-15.12 6.336-21.888 0-12.816 2.592-25.488 2.592-38.304C396.72 2.448 387.36 0 374.4 0Z" />
    </symbol>
    <!-- CATEGORIES -->
    <symbol id="animais" viewBox="0 -960 960 960">
        <path d="M169.859-485Q132-485 106-511.141t-26-64Q80-613 106.141-639t64-26Q208-665 234-638.859t26 64Q260-537 233.859-511t-64 26Zm185-170Q317-655 291-681.141t-26-64Q265-783 291.141-809t64-26Q393-835 419-808.859t26 64Q445-707 418.859-681t-64 26Zm250 0Q567-655 541-681.141t-26-64Q515-783 541.141-809t64-26Q643-835 669-808.859t26 64Q695-707 668.859-681t-64 26Zm185 170Q752-485 726-511.141t-26-64Q700-613 726.141-639t64-26Q828-665 854-638.859t26 64Q880-537 853.859-511t-64 26ZM266-75q-42 0-69-31.526T170-181q0-42 25.5-74.5T250-318q22-22 41-46.5t36-50.5q29-44 65-82t88-38q52 0 88.5 38t65.5 83q17 26 35.5 50t40.5 46q29 30 54.5 62.5T790-181q0 42.948-27 74.474Q736-75 694-75q-54 0-107-9t-107-9q-54 0-107 9t-107 9Z" />
    </symbol>
    <symbol id="beleza" viewBox="0 -960 960 960">
        <path d="M660-40q-8.5 0-14.25-5.75T640-60q0-8.5 5.75-14.25T660-80h140v-60H660q-8.5 0-14.25-5.75T640-160q0-8.5 5.75-14.25T660-180h140v-60H660q-8.5 0-14.25-5.75T640-260q0-8.5 5.75-14.25T660-280h140v-60H660q-8.5 0-14.25-5.75T640-360q0-8.5 5.75-14.25T660-380h140v-60H660q-8.5 0-14.25-5.75T640-460q0-8.5 5.75-14.25T660-480h140v-60H660q-8.5 0-14.25-5.75T640-560q0-8.5 5.75-14.25T660-580h160q24.75 0 42.375 17.625T880-520v420q0 24.75-17.625 42.375T820-40H660ZM319.823-340Q394-340 447-410.871t53-169Q500-678 447.177-749q-52.823-71-127-71Q246-820 193-749.129t-53 169Q140-482 192.823-411q52.823 71 127 71ZM320-40q-39 0-63.5-29T237-136l17-155q-76-27-125-106.5T80-580q0-125 70-212.5T320-880q100 0 170 87.5T560-580q0 103-49.5 182.5T385-291l18 155q5 38-19.5 67T320-40Z" />
    </symbol>
    <symbol id="casa" viewBox="0 -960 960 960">
        <path d="M820-80v-610q0-38-26-64t-64-26h-50v62q0 7.714-5.143 12.857Q669.714-700 662-700H438q-10 0-14.5-11t-.5-19l76-164q5-12 16.4-19 11.4-7 26.6-7h92q19.714 0 32.857 15T680-870v30h50q63 0 106.5 43.5T880-690v610h-60Zm-630 0q-46.75 0-78.375-31.625T80-190v-98q0-25 17.5-42.5T140-348q25 0 42.5 17.5T200-288v88h380v-90q0-25 17.5-42.5T640-350q25 0 42.5 17.5T700-290v100q0 46.75-31.625 78.375T590-80H190Zm40-150v-60q0-32-16-56t-54-32v-102q0-24.75 17.625-42.375T220-540h340q24.75 0 42.375 17.625T620-480v102q-38 8-54 32t-16 56v60H230Z" />
    </symbol>
    <symbol id="crianca" viewBox="0 -960 960 960">
        <path d="M584-502q19 0 32-13t13-32q0-19-13-32t-32-13q-19 0-32 13t-13 32q0 19 13 32t32 13Zm-209 0q19 0 32-13t13-32q0-19-13-32t-32-13q-19 0-32 13t-13 32q0 19 13 32t32 13Zm105 216q54 0 101-29t73-80H306q26 51 73 80t101 29Zm0 166q-74 0-139.5-28.5T226-226q-49-49-77.5-114.5T120-480q0-74 28.5-139.5T226-734q49-49 114.5-77.5T480-840q74 0 139.5 28.5T734-734q49 49 77.5 114.5T840-480q0 74-28.5 139.5T734-226q-49 49-114.5 77.5T480-120Zm15-518q29 0 44-8.5t15-24.5q0-9-6.5-14.5T530-691q-7 0-15 1.5t-20 1.5q-25 0-41.5-16.5T437-746q0-10 1.5-20.5T442-784q-14 2-26 4.5t-26 7.5q-2 5-2.5 12.5T387-746q0 46 31 77t77 31Z" />
    </symbol>
    <symbol id="desporto" viewBox="0 -960 960 960">
        <path d="M480-80q-82 0-155-31.5t-127.5-86Q143-252 111.5-325T80-480q0-83 31.5-155.5t86-127Q252-817 325-848.5T480-880q83 0 155.5 31.5t127 86q54.5 54.5 86 127T880-480q0 82-31.5 155t-86 127.5q-54.5 54.5-127 86T480-80Zm205-493 69-24 18-64q-34-53-84-90.5T575-809l-65 43v70l175 123Zm-409 0 174-123v-70l-64-43q-63 20-113 57.5T189-661l22 64 65 24Zm-54 320 60-7 39-65-62-191-71-24-48 39q0 72 16 131.5T222-253Zm258 113q27 0 54.5-5t57.5-13l33-72-32-55H368l-32 55 33 72q26 8 55 13t56 5ZM374-345h208l61-183-163-117-166 117 60 183Zm365 92q49-57 65-116.5T820-501l-48-33-70 18-62 191 38 65 61 7Z" />
    </symbol>
    <symbol id="familia" viewBox="0 -960 960 960">
        <path d="M40-160v-160q0-34 23.5-57t56.5-23h131q20 0 38 10t29 27q29 39 71.5 61t90.5 22q49 0 91.5-22t70.5-61q13-17 30.5-27t36.5-10h131q34 0 57 23t23 57v160H640v-91q-35 25-75.5 38T480-200q-43 0-84-13.5T320-252v92H40Zm440-160q-38 0-72-17.5T351-386q-17-25-42.5-39.5T253-440q22-37 93-58.5T480-520q63 0 134 21.5t93 58.5q-29 0-55 14.5T609-386q-22 32-56 49t-73 17ZM160-440q-50 0-85-35t-35-85q0-51 35-85.5t85-34.5q51 0 85.5 34.5T280-560q0 50-34.5 85T160-440Zm640 0q-50 0-85-35t-35-85q0-51 35-85.5t85-34.5q51 0 85.5 34.5T920-560q0 50-34.5 85T800-440ZM480-560q-50 0-85-35t-35-85q0-51 35-85.5t85-34.5q51 0 85.5 34.5T600-680q0 50-34.5 85T480-560Z" />
    </symbol>
    <symbol id="moda" viewBox="0 -960 960 960">
        <path d="M120-160q-29 0-38-27.5T96-232l344-258v-70q0-17 11-28.5t28-11.5q26 1 43.5-16.5T540-660q0-25-17.5-42.5T480-720q-25 0-42.5 17.5T420-660h-80q0-58 41-99t99-41q58 0 99 40t41 98q0 47-27.5 84.5T520-526v36l344 258q23 17 14 44.5T840-160H120Zm120-80h480L480-420 240-240Z" />
    </symbol>
    <symbol id="saude" viewBox="0 -960 960 960">
        <path d="M480-80q-94-12-168-48t-125.5-94Q135-280 108-356.5T81-526q110 11 186 40t123.5 82Q438-351 459-271.5T480-80Zm0-337q-23-35-62.5-69T326-548q6-42 20-87t34-88.5q20-43.5 45.5-83.5t54.5-73q29 33 54.5 73t45.5 83.5q20 43.5 34 88.5t20 87q-52 27-91.5 61T480-417Zm80 321q-2-70-10.5-129.5T523-338q47-81 129.5-132T879-526q1 158-84.5 272.5T560-96Z" />
    </symbol>
    <symbol id="tecnologia" viewBox="0 -960 960 960">
        <path d="M125-160q-18.75 0-31.875-13.176Q80-186.353 80-205.176 80-224 93.125-237T125-250h35v-490q0-24.75 17.625-42.375T220-800h590q12.75 0 21.375 8.675 8.625 8.676 8.625 21.5 0 12.825-8.625 21.325T810-740H220v490h195q18.75 0 31.875 13.176 13.125 13.177 13.125 32Q460-186 446.875-173T415-160H125Zm425 0q-12.75 0-21.375-8.625T520-190v-460q0-12.75 8.625-21.375T550-680h300q12.75 0 21.375 8.625T880-650v460q0 12.75-8.625 21.375T850-160H550Z" />
    </symbol>
    <!-- DIVIDERS -->
    <symbol id="divider-shadow" viewBox="0 0 32 32">
        <path d="M18.593 7.185c-.448-.935-1.139-1.555-2.074-1.86a9.012 9.012 0 0 0-2.807-.458c-.406 0-.894.031-1.464.092a7.45 7.45 0 0 0-1.647.366 3.675 3.675 0 0 0-1.342.793c-.366.345-.549.783-.549 1.311-.61.041-1.189.265-1.738.671a5.786 5.786 0 0 0-1.403 1.495 8.058 8.058 0 0 0-.915 1.891c-.224.671-.336 1.291-.336 1.86 0 1.098.427 2.034 1.281 2.807a4.398 4.398 0 0 0-.183.549 2.244 2.244 0 0 0-.061.549c0 .691.193 1.362.58 2.013.386.65.864 1.24 1.433 1.769.57.528 1.21.945 1.922 1.25.711.305 1.393.458 2.043.458.936 0 1.749-.346 2.44-1.037.285.325.621.559 1.007.701.386.143.803.214 1.251.214.61 0 1.27-.143 1.982-.427a8.324 8.324 0 0 0 1.983-1.129 6.76 6.76 0 0 0 1.525-1.616c.406-.61.61-1.261.61-1.952 0-.366-.102-.793-.305-1.281a2.437 2.437 0 0 0 1.128-1.221 4.176 4.176 0 0 0 .336-1.647c0-.528-.112-1.148-.336-1.86a9.607 9.607 0 0 0-.915-2.044 5.717 5.717 0 0 0-1.403-1.616c-.549-.427-1.128-.641-1.738-.641h-.305Zm-4.881-4.636c1.18 0 2.329.183 3.447.549a5.713 5.713 0 0 1 2.776 1.952c1.057.285 1.982.854 2.775 1.708.793.854 1.413 1.749 1.861 2.684.732.244 1.423.671 2.074 1.281.651.61 1.23 1.312 1.738 2.105.509.793.905 1.616 1.19 2.47.285.855.427 1.648.427 2.38s-.071 1.403-.214 2.013c-.142.61-.498 1.199-1.067 1.769.081.976-.142 1.931-.671 2.867a9.605 9.605 0 0 1-2.044 2.501 10.722 10.722 0 0 1-2.775 1.769c-1.017.447-1.973.671-2.867.671a5.374 5.374 0 0 1-2.196-.488c-.448.285-.854.468-1.22.549a5.98 5.98 0 0 1-1.282.122 6.277 6.277 0 0 1-2.318-.458 10.482 10.482 0 0 1-2.196-1.189 10.43 10.43 0 0 1-1.86-1.678 8.612 8.612 0 0 1-1.312-1.982c-1.301-.692-2.46-1.678-3.477-2.959-1.017-1.281-1.525-2.714-1.525-4.3 0-.082.02-.143.061-.183C2.346 15.766 2 14.648 2 13.346c0-.732.132-1.484.397-2.257.264-.772.61-1.525 1.037-2.257A9.674 9.674 0 0 1 4.959 6.85c.589-.59 1.209-1.048 1.86-1.373.285-.651.681-1.169 1.19-1.555a5.593 5.593 0 0 1 1.738-.885 9.568 9.568 0 0 1 2.013-.396 22.291 22.291 0 0 1 1.952-.092Z" />
    </symbol>
    <symbol id="divider" viewBox="0 0 32 32">
        <path d="M23.085 6.226c-1.365-2.647-4.439-3.415-7.256-3.415-2.305 0-7.256.512-7.341 3.756C4.817 6.738 2 11.945 2 15.274c0 1.537.768 3.074 1.878 4.183-.171.513-.341 1.11-.341 1.622 0 4.012 4.951 8.11 8.792 8.11 1.366 0 2.647-.598 3.586-1.537.853.854 2.134 1.281 3.329 1.281 4.183 0 10.756-4.695 8.536-9.39 1.537-.854 2.22-2.561 2.22-4.269 0-3.329-2.902-9.39-6.915-9.048Z"/>
    </symbol>
    <symbol id="sparkles" viewBox="0 0 20 20">
        <path d="M15.98 1.804a1 1 0 0 0-1.96 0l-.24 1.192a1 1 0 0 1-.784.785l-1.192.238a1 1 0 0 0 0 1.962l1.192.238a1 1 0 0 1 .785.785l.238 1.192a1 1 0 0 0 1.962 0l.238-1.192a1 1 0 0 1 .785-.785l1.192-.238a1 1 0 0 0 0-1.962l-1.192-.238a1 1 0 0 1-.785-.785l-.238-1.192ZM6.949 5.684a1 1 0 0 0-1.898 0l-.683 2.051a1 1 0 0 1-.633.633l-2.051.683a1 1 0 0 0 0 1.898l2.051.684a1 1 0 0 1 .633.632l.683 2.051a1 1 0 0 0 1.898 0l.683-2.051a1 1 0 0 1 .633-.633l2.051-.683a1 1 0 0 0 0-1.898l-2.051-.683a1 1 0 0 1-.633-.633L6.95 5.684ZM13.949 13.684a1 1 0 0 0-1.898 0l-.184.551a1 1 0 0 1-.632.633l-.551.183a1 1 0 0 0 0 1.898l.551.183a1 1 0 0 1 .633.633l.183.551a1 1 0 0 0 1.898 0l.184-.551a1 1 0 0 1 .632-.633l.551-.183a1 1 0 0 0 0-1.898l-.551-.184a1 1 0 0 1-.633-.632l-.183-.551Z"/>
    </symbol>
    <symbol id="magnifier" viewBox="0 0 20 20">
        <path d="M9 3.5a5.5 5.5 0 1 0 0 11 5.5 5.5 0 0 0 0-11ZM2 9a7 7 0 1 1 12.452 4.391l3.328 3.329a.75.75 0 1 1-1.06 1.06l-3.329-3.328A7 7 0 0 1 2 9Z"/>
    </symbol>
    <symbol id="temu" viewBox="0 0 1024 1024">
         <path d="M796.4 0c125.7 0 227.6 101.9 227.6 227.6l0 568.8c0 125.7-101.9 227.6-227.6 227.6l-568.8 0c-125.7 0-227.6-101.9-227.6-227.6l0-568.8c0-125.7 101.9-227.6 227.6-227.6l568.8 0z m-256 531.9l-13.6 0c-12.1 0-22 9.8-21.9 21.9l0 150.5c0 12.1 9.8 22 21.9 22 12.1 0 22-9.8 22-22l0-98.8 37 52.2c7.7 10.8 23.7 10.8 31.5 0l37-52.2 0 98.8c0 12.1 9.8 22 22 22 12.1 0 22-9.8 21.9-22l0-150.5c0-12.1-9.8-22-21.9-21.9l-13.6 0c-5.2 0-10.2 2.5-13.2 6.8l-47.9 72-48-72c-3-4.3-7.9-6.8-13.2-6.8z m340.2 0c-12.1 0-22 9.8-22 21.9l0 91.9c0 28.9-16.3 43.7-43.1 43.6-26.8 0-43.1-15.3-43-44.9l0-90.6c0-12.1-9.8-22-22-21.9-12.1 0-22 9.8-21.9 21.9l0 91.6c0 53.6 32.8 80.9 86.4 80.9 53.6 0 87.6-27 87.5-82.2l0-90.3c0-12.1-9.8-22-21.9-21.9z m-616.9 0l-128.3 0c-12.1 0-22 9.8-22 21.9 0 12.1 9.8 22 22 22l42.2 0 0 128.3c0 12.1 9.8 22 21.9 22 12.1 0 22-9.8 22-22l0-128.3 42.2 0c12.1 0 22-9.8 22-22 0-12.1-9.8-22-22-21.9z m189.9 0l-118.9 0c-12.1 0-22 9.8-22 21.9l0 150.3c0 12.1 9.8 22 22 22l118.9 0c12.1 0 22-9.8 21.9-22 0-12.1-9.8-22-21.9-22l-97 0 0-31.2 84.4 0c12.1 0 22-9.8 22-21.9 0-12.1-9.8-22-22-22l-84.4 0 0-31.2 97 0c12.1 0 22-9.8 21.9-22 0-12.1-9.8-22-21.9-21.9z m-214.5-229.4l-4.1 0.1c-17.1 1.1-28.8 8.5-35.4 18.5-7.7-11.5-22.1-19.6-43.8-18.4l-0.5 0.7c-2.5 4-11.9 21.9 3.3 41.4 3.1 3.3 10.7 12.6 7.6 24.5l-44.1 71.3c-3.6 5.8-2 13.3 3.5 17.2 11.4 8 34.3 19 74 19 39.6 0 62.5-11 73.9-19l1.5-1.3c4.3-4.1 5.2-10.7 2-15.9l-44-71.3 0.3 1.3-0.5-2c-2.4-10.7 3.6-19.2 6.9-23l0.8-0.8c15.3-19.5 5.8-37.3 3.3-41.4l-0.4-0.7-4.3-0.2z m142.8 33.4c-15.1-30-34.7-35.1-44.5-27.3-7.5 6-24.8 29.7-26 31.3-19.1 27.1-18 33.7 6.5 49.1 13.8 8.7 24.9-2.5 29.7-5.8-2.3 14.3-9.3 36.8-19.8 52.6-5.7-4.3-9.9-7.6-12.5-10-3.3-3-8.3-2.8-11.5 0.3-1.5 1.5-2.3 3.5-2.2 5.7 0.1 2.1 1 4.1 2.5 5.5 25.5 23.3 59 36.5 94.7 36.6 35.8 0 69.5-13.2 95-36.6 3.3-3 3.4-8 0.4-11.2-3.2-3.2-8.2-3.3-11.5-0.3-2 1.8-4 3.5-6.1 5.2l-11.2-25c-1.8-4.3-3.8-9.7-6-16.2 1.1-2.7 3.4-5.3 6.7-8.7 2.4-2.4 4.4-4.8 5.9-7.1 7.4-11.7 3.2-18.6 0.9-23.2-5.3-10.8-13.6-7.3-19.6-0.9-7.4 7.8-14.6 11.2-26.2 13.8-9.7 2.2-17.2 1.1-23.4-2.8-8.6-5.3-21.8-25-21.8-25z m277.3-30.5c-32 30.4-1.3 96.5-59.5 124.6-6.4 3.1-11.7-7.1-20.3-7.1-24.3 0.2-70.7 21.6-72.5 32.4-1.5 8.9 18.3 16 76.7 16.1 50.8 0 67.2-77.3 85-77.4 17.8 0 9.5 70.1 7.6 77.4l18.6 0c-1.6-7.3-2.8-29.3-2.7-60.4 0-31.1 5.6-38 10.1-61.5 3.9-20.4-26.3-38.1-43-44.1z m182.4 2.5l-52.1 0c-33.7 0-61.7 26.1-64 59.7l-3.8 53.9c-1.8 25.6 18.5 47.3 44.1 47.4l99.4 0c25.7 0 45.9-21.7 44.2-47.4l-3.8-53.9c-2.4-33.6-30.3-59.7-64-59.7z m-442.6 124c15.7 0 27.7 7.7 32.1 22-10.7 2.8-21.4 4.2-32.3 4.1-16.4 0-22.2-1.5-32.7-4.3 4.2-12.6 18.1-21.8 32.9-21.8z m392.9-79.3l0 1.5c0 13 10.6 23.7 23.6 23.7 13 0 23.7-10.6 23.7-23.7l0-1.5c0-5.8 21-5.8 21 0l0 1.5c0 24.6-20 44.6-44.7 44.6-24.6 0-44.6-20-44.6-44.6l0-1.5c0-5.8 20.9-5.8 21 0z"></path>
    </symbol>
</svg>